{
  "asset": {
    "version": "2.0",
    "generator": "ModelConverterX"
  },
  "scene": 0,
  "scenes": [
    {
      "nodes": [
        0
      ]
    }
  ],
  "nodes": [
    {
      "name": "node0",
      "children": [
        1,
        2
      ]
    },
    {
      "name": "node1",
      "mesh": 0
    },
    {
      "name": "node2",
      "mesh": 1
    }
  ],
  "meshes": [
    {
      "primitives": [
        {
          "attributes": {
            "POSITION": 0,
            "NORMAL": 1,
            "TEXCOORD_0": 2
          },
          "indices": 3,
          "mode": 4,
          "material": 0
        }
      ],
      "name": "part000"
    },
    {
      "primitives": [
        {
          "attributes": {
            "POSITION": 4,
            "NORMAL": 5,
            "TEXCOORD_0": 6
          },
          "indices": 7,
          "mode": 4,
          "material": 1
        }
      ],
      "name": "part001"
    }
  ],
  "accessors": [
    {
      "bufferView": 1,
      "byteOffset": 0,
      "componentType": 5126,
      "count": 19900,
      "type": "VEC3",
      "min": [
        0.0,
        0.0,
        -21.0
      ],
      "max": [
        20.0,
        10.0,
        0.0
      ]
    },
    {
      "bufferView": 2,
      "byteOffset": 0,
      "componentType": 5126,
      "count": 19900,
      "type": "VEC3"
    },
    {
      "bufferView": 3,
      "byteOffset": 0,
      "componentType": 5126,
      "count": 19900,
      "type": "VEC2"
    },
    {
      "bufferView": 0,
      "byteOffset": 0,
      "componentType": 5125,
      "count": 45945,
      "type": "SCALAR"
    },
    {
      "bufferView": 1,
      "byteOffset": 238800,
      "componentType": 5126,
      "count": 37,
      "type": "VEC3",
      "min": [
        0.0,
        8.819000244140625,
        -21.0
      ],
      "max": [
        20.0,
        10.0,
        0.0
      ]
    },
    {
      "bufferView": 2,
      "byteOffset": 238800,
      "componentType": 5126,
      "count": 37,
      "type": "VEC3"
    },
    {
      "bufferView": 3,
      "byteOffset": 159200,
      "componentType": 5126,
      "count": 37,
      "type": "VEC2"
    },
    {
      "bufferView": 0,
      "byteOffset": 183780,
      "componentType": 5125,
      "count": 75,
      "type": "SCALAR"
    }
  ],
  "materials": [
    {
      "pbrMetallicRoughness": {
        "baseColorFactor": [
          1.0,
          1.0,
          1.0,
          1.0
        ],
        "roughnessFactor": 1.0,
        "metallicFactor": 0.0,
        "baseColorTexture": {
          "index": 0
        }
      },
      "emissiveFactor": [
        0.0,
        0.0,
        0.0
      ]
    },
    {
      "pbrMetallicRoughness": {
        "baseColorFactor": [
          1.0,
          1.0,
          1.0,
          1.0
        ],
        "roughnessFactor": 1.0,
        "metallicFactor": 0.0,
        "baseColorTexture": {
          "index": 1
        }
      },
      "emissiveFactor": [
        0.0,
        0.0,
        0.0
      ]
    }
  ],
  "textures": [
    {
      "source": 0,
      "name": "hangar_0"
    },
    {
      "source": 1,
      "name": "material_1"
    }
  ],
  "images": [
    {
      "uri": "hangar_0.png"
    },
    {
      "uri": "material_1.png"
    }
  ],
  "bufferViews": [
    {
      "buffer": 0,
      "byteOffset": 0,
      "byteLength": 184080
    },
    {
      "buffer": 0,
      "byteOffset": 184080,
      "byteLength": 239244,
      "byteStride": 12
    },
    {
      "buffer": 0,
      "byteOffset": 423324,
      "byteLength": 239244,
      "byteStride": 12
    },
    {
      "buffer": 0,
      "byteOffset": 662568,
      "byteLength": 159496,
      "byteStride": 8
    }
  ],
  "buffers": [
    {
      "byteLength": 822064,
      "uri": "hangar.bin"
    }
  ]
}