{
  "asset": {
    "version": "2.0",
    "generator": "ModelConverterX"
  },
  "extensionsUsed": [
    "ASOBO_material_day_night_switch"
  ],
  "scene": 0,
  "scenes": [
    {
      "nodes": [
        0
      ]
    }
  ],
  "nodes": [
    {
      "name": "node0",
      "children": [
        1,
        2,
        3
      ]
    },
    {
      "name": "node1",
      "mesh": 0
    },
    {
      "name": "node2",
      "mesh": 1
    },
    {
      "name": "node3",
      "translation": [
        0.0,
        0.0,
        0.0
      ],
      "rotation": [
        0.70710678118654757,
        0.0,
        0.0,
        -0.70710678118654746
      ],
      "scale": [
        1.0,
        1.0,
        1.0
      ],
      "children": [
        4
      ]
    },
    {
      "name": "node4",
      "translation": [
        0.0,
        0.0,
        0.0
      ],
      "rotation": [
        1.0,
        0.0,
        0.0,
        0.0
      ],
      "scale": [
        1.0,
        1.0,
        1.0
      ],
      "children": [
        5
      ]
    },
    {
      "name": "node5",
      "translation": [
        0.0,
        0.0,
        0.0
      ],
      "rotation": [
        0.70710678118654757,
        0.0,
        0.0,
        0.70710678118654746
      ],
      "scale": [
        1.0,
        1.0,
        1.0
      ],
      "children": [
        6
      ]
    },
    {
      "name": "node6",
      "translation": [
        0.066676996648311615,
        -0.1108819991350174,
        -6.5603208541870117
      ],
      "rotation": [
        0.0012484003041889611,
        0.70710635467831673,
        0.70710605835525864,
        0.00025866486545739767
      ],
      "scale": [
        1.0,
        1.0,
        1.0
      ],
      "children": [
        7
      ]
    },
    {
      "name": "node7",
      "translation": [
        2.0075548217132564,
        0.0,
        0.0
      ],
      "rotation": [
        -2.50000129932585E-07,
        0.0011305011513818588,
        -0.00027900020474466139,
        0.99999932206275521
      ],
      "scale": [
        1.0,
        1.0,
        1.0
      ],
      "children": [
        8
      ]
    },
    {
      "name": "node8",
      "translation": [
        3.8049695053365289,
        0.0,
        0.0
      ],
      "rotation": [
        0.0,
        0.0,
        -0.00068900021522130979,
        0.99999976263932355
      ],
      "scale": [
        1.0,
        1.0,
        1.0
      ],
      "children": [
        9
      ]
    },
    {
      "name": "node9",
      "translation": [
        1.4929431230656631,
        0.0,
        0.0
      ],
      "rotation": [
        0.0,
        -1.1500128318730695E-05,
        -0.004767551864569,
        0.99998863509390234
      ],
      "scale": [
        1.0,
        1.0,
        1.0
      ],
      "children": [
        10,
        14
      ]
    },
    {
      "name": "node10",
      "translation": [
        7.9596478830216579,
        0.0,
        0.0
      ],
      "rotation": [
        2.5007406943397347E-07,
        1.2003556596157238E-05,
        0.02434270997765417,
        0.99970367225833279
      ],
      "scale": [
        1.0,
        1.0,
        1.0
      ],
      "children": [
        11,
        12,
        13
      ]
    },
    {
      "name": "node11",
      "translation": [
        3.5493852087231854,
        1.0000004753846956E-06,
        0.0
      ],
      "rotation": [
        0.0,
        0.0,
        0.0,
        1.0
      ],
      "scale": [
        1.0,
        1.0,
        1.0
      ]
    },
    {
      "name": "node12",
      "translation": [
        1.8509001719714431,
        1.7635988080806204,
        0.1061550118681993
      ],
      "rotation": [
        0.0,
        0.0,
        0.72370332412306748,
        -0.69011122194413155
      ],
      "scale": [
        1.0,
        1.0,
        1.0
      ]
    },
    {
      "name": "node13",
      "translation": [
        2.6564217015999771,
        1.7274727732451596,
        0.1061550118681993
      ],
      "rotation": [
        -2.494340146999717E-07,
        -4.6911707404336923E-07,
        0.47053706167891557,
        -0.88238023186509007
      ],
      "scale": [
        1.0,
        1.0,
        1.0
      ]
    },
    {
      "name": "node14",
      "translation": [
        4.0222269457565849,
        -1.0883814249325687,
        -9.7000006701944324E-05
      ],
      "rotation": [
        8.4388856288219021E-06,
        8.79050743113041E-06,
        0.71099437465712445,
        0.70319769557176237
      ],
      "scale": [
        1.0,
        1.0,
        1.0
      ],
      "children": [
        15
      ]
    },
    {
      "name": "node15",
      "translation": [
        3.0659849932905643,
        -1.0000001530380396E-06,
        0.0
      ],
      "rotation": [
        2.3001572702136524E-05,
        -0.011508286278447296,
        0.0020053868051081694,
        0.99993176629289215
      ],
      "scale": [
        1.0,
        1.0,
        1.0
      ]
    }
  ],
  "meshes": [
    {
      "primitives": [
        {
          "attributes": {
            "POSITION": 0,
            "NORMAL": 1,
            "TEXCOORD_0": 2
          },
          "indices": 3,
          "mode": 4,
          "material": 1
        }
      ],
      "name": "part000"
    },
    {
      "primitives": [
        {
          "attributes": {
            "POSITION": 4,
            "NORMAL": 5,
            "TEXCOORD_0": 6
          },
          "indices": 7,
          "mode": 4,
          "material": 0
        }
      ],
      "name": "part001"
    }
  ],
  "accessors": [
    {
      "bufferView": 1,
      "byteOffset": 0,
      "componentType": 5126,
      "count": 1982,
      "type": "VEC3",
      "min": [
        -18.249570846557617,
        -0.014999999664723873,
        -1.8966599702835083
      ],
      "max": [
        0.0695900022983551,
        9.3354196548461914,
        2.0993399620056152
      ]
    },
    {
      "bufferView": 2,
      "byteOffset": 0,
      "componentType": 5126,
      "count": 1982,
      "type": "VEC3"
    },
    {
      "bufferView": 3,
      "byteOffset": 0,
      "componentType": 5126,
      "count": 1982,
      "type": "VEC2"
    },
    {
      "bufferView": 0,
      "byteOffset": 0,
      "componentType": 5125,
      "count": 3411,
      "type": "SCALAR"
    },
    {
      "bufferView": 1,
      "byteOffset": 23784,
      "componentType": 5126,
      "count": 4,
      "type": "VEC3",
      "min": [
        -2.5258500576019287,
        0.0,
        -1.4468300342559814
      ],
      "max": [
        0.47415000200271606,
        0.0,
        1.5531699657440186
      ]
    },
    {
      "bufferView": 2,
      "byteOffset": 23784,
      "componentType": 5126,
      "count": 4,
      "type": "VEC3"
    },
    {
      "bufferView": 3,
      "byteOffset": 15856,
      "componentType": 5126,
      "count": 4,
      "type": "VEC2"
    },
    {
      "bufferView": 0,
      "byteOffset": 13644,
      "componentType": 5125,
      "count": 6,
      "type": "SCALAR"
    }
  ],
  "materials": [
    {
      "name": "material00",
      "pbrMetallicRoughness": {
        "baseColorFactor": [
          0.52548998594284058,
          0.023529000580310822,
          0.023529000580310822,
          1.0
        ],
        "roughnessFactor": 1.0,
        "metallicFactor": 0.0
      },
      "emissiveFactor": [
        0.0,
        0.0,
        0.0
      ],
      "extensions": {
        "ASOBO_material_day_night_switch": {
          "enabled": true
        }
      }
    },
    {
      "name": "material01",
      "pbrMetallicRoughness": {
        "baseColorFactor": [
          0.58799999952316284,
          0.58799999952316284,
          0.58799999952316284,
          1.0
        ],
        "roughnessFactor": 1.0,
        "metallicFactor": 0.0,
        "baseColorTexture": {
          "index": 0
        }
      },
      "emissiveFactor": [
        1.0,
        1.0,
        1.0
      ],
      "emissiveTexture": {
        "index": 1
      },
      "doubleSided": true,
      "extensions": {
        "ASOBO_material_day_night_switch": {
          "enabled": true
        }
      }
    }
  ],
  "textures": [
    {
      "source": 0,
      "name": "jetways_static_jetways"
    },
    {
      "source": 1,
      "name": "jetways_static_jetways_lm"
    }
  ],
  "images": [
    {
      "uri": "jetways_static_jetways.png"
    },
    {
      "uri": "jetways_static_jetways_lm.png"
    }
  ],
  "bufferViews": [
    {
      "buffer": 0,
      "byteOffset": 0,
      "byteLength": 13668
    },
    {
      "buffer": 0,
      "byteOffset": 13668,
      "byteLength": 23832,
      "byteStride": 12
    },
    {
      "buffer": 0,
      "byteOffset": 37500,
      "byteLength": 23832,
      "byteStride": 12
    },
    {
      "buffer": 0,
      "byteOffset": 61332,
      "byteLength": 15888,
      "byteStride": 8
    }
  ],
  "buffers": [
    {
      "byteLength": 77220,
      "uri": "jetways_static.bin"
    }
  ]
}