{
  "asset": {
    "version": "2.0",
    "generator": "ModelConverterX"
  },
  "extensionsUsed": [
    "ASOBO_material_day_night_switch"
  ],
  "scene": 0,
  "scenes": [
    {
      "nodes": [
        0
      ]
    }
  ],
  "nodes": [
    {
      "name": "node0",
      "children": [
        1
      ]
    },
    {
      "name": "node1",
      "mesh": 0
    }
  ],
  "meshes": [
    {
      "primitives": [
        {
          "attributes": {
            "POSITION": 0,
            "NORMAL": 1,
            "TEXCOORD_0": 2
          },
          "indices": 3,
          "mode": 4,
          "material": 0
        }
      ],
      "name": "part000"
    }
  ],
  "accessors": [
    {
      "bufferView": 1,
      "byteOffset": 0,
      "componentType": 5126,
      "count": 255,
      "type": "VEC3",
      "min": [
        -87.640998840332031,
        -0.092189997434616089,
        -120.93430328369141
      ],
      "max": [
        87.5009994506836,
        41.6085090637207,
        79.233650207519531
      ]
    },
    {
      "bufferView": 2,
      "byteOffset": 0,
      "componentType": 5126,
      "count": 255,
      "type": "VEC3"
    },
    {
      "bufferView": 3,
      "byteOffset": 0,
      "componentType": 5126,
      "count": 255,
      "type": "VEC2"
    },
    {
      "bufferView": 0,
      "byteOffset": 0,
      "componentType": 5125,
      "count": 336,
      "type": "SCALAR"
    }
  ],
  "materials": [
    {
      "name": "material00",
      "pbrMetallicRoughness": {
        "baseColorFactor": [
          0.58799999952316284,
          0.58799999952316284,
          0.58799999952316284,
          1.0
        ],
        "roughnessFactor": 1.0,
        "metallicFactor": 0.0,
        "baseColorTexture": {
          "index": 0
        }
      },
      "emissiveFactor": [
        1.0,
        1.0,
        1.0
      ],
      "emissiveTexture": {
        "index": 1
      },
      "doubleSided": true,
      "extensions": {
        "ASOBO_material_day_night_switch": {
          "enabled": true
        }
      }
    }
  ],
  "textures": [
    {
      "source": 0,
      "name": "skcl_env_skcl_env"
    },
    {
      "source": 1,
      "name": "skcl_env_skcl_env_lm"
    }
  ],
  "images": [
    {
      "uri": "skcl_env_skcl_env.png"
    },
    {
      "uri": "skcl_env_skcl_env_lm.png"
    }
  ],
  "bufferViews": [
    {
      "buffer": 0,
      "byteOffset": 0,
      "byteLength": 1344
    },
    {
      "buffer": 0,
      "byteOffset": 1344,
      "byteLength": 3060,
      "byteStride": 12
    },
    {
      "buffer": 0,
      "byteOffset": 4404,
      "byteLength": 3060,
      "byteStride": 12
    },
    {
      "buffer": 0,
      "byteOffset": 7464,
      "byteLength": 2040,
      "byteStride": 8
    }
  ],
  "buffers": [
    {
      "byteLength": 9504,
      "uri": "skcl_env.bin"
    }
  ]
}