{
  "asset": {
    "version": "2.0",
    "generator": "ModelConverterX"
  },
  "extensionsUsed": [
    "ASOBO_material_day_night_switch"
  ],
  "scene": 0,
  "scenes": [
    {
      "nodes": [
        0
      ]
    }
  ],
  "nodes": [
    {
      "name": "node0",
      "children": [
        1,
        2
      ]
    },
    {
      "name": "node1",
      "mesh": 0
    },
    {
      "name": "node2",
      "mesh": 1
    }
  ],
  "meshes": [
    {
      "primitives": [
        {
          "attributes": {
            "POSITION": 0,
            "NORMAL": 1,
            "TEXCOORD_0": 2
          },
          "indices": 3,
          "mode": 4,
          "material": 0
        }
      ],
      "name": "part000"
    },
    {
      "primitives": [
        {
          "attributes": {
            "POSITION": 4,
            "NORMAL": 5,
            "TEXCOORD_0": 6
          },
          "indices": 7,
          "mode": 4,
          "material": 1
        }
      ],
      "name": "part001"
    }
  ],
  "accessors": [
    {
      "bufferView": 1,
      "byteOffset": 0,
      "componentType": 5126,
      "count": 2088,
      "type": "VEC3",
      "min": [
        -149.2969970703125,
        0.0,
        -214.09700012207031
      ],
      "max": [
        4.1788601875305176,
        16.712499618530273,
        17.799999237060547
      ]
    },
    {
      "bufferView": 2,
      "byteOffset": 0,
      "componentType": 5126,
      "count": 2088,
      "type": "VEC3"
    },
    {
      "bufferView": 3,
      "byteOffset": 0,
      "componentType": 5126,
      "count": 2088,
      "type": "VEC2"
    },
    {
      "bufferView": 0,
      "byteOffset": 0,
      "componentType": 5125,
      "count": 3978,
      "type": "SCALAR"
    },
    {
      "bufferView": 1,
      "byteOffset": 25056,
      "componentType": 5126,
      "count": 3399,
      "type": "VEC3",
      "min": [
        -29.950000762939453,
        -0.25,
        -216.34800720214844
      ],
      "max": [
        286.81100463867188,
        43.776298522949219,
        74.800003051757813
      ]
    },
    {
      "bufferView": 2,
      "byteOffset": 25056,
      "componentType": 5126,
      "count": 3399,
      "type": "VEC3"
    },
    {
      "bufferView": 3,
      "byteOffset": 16704,
      "componentType": 5126,
      "count": 3399,
      "type": "VEC2"
    },
    {
      "bufferView": 0,
      "byteOffset": 15912,
      "componentType": 5125,
      "count": 5868,
      "type": "SCALAR"
    }
  ],
  "materials": [
    {
      "name": "material00",
      "pbrMetallicRoughness": {
        "baseColorFactor": [
          0.58799999952316284,
          0.58799999952316284,
          0.58799999952316284,
          1.0
        ],
        "roughnessFactor": 1.0,
        "metallicFactor": 0.0,
        "baseColorTexture": {
          "index": 0
        }
      },
      "emissiveFactor": [
        1.0,
        1.0,
        1.0
      ],
      "emissiveTexture": {
        "index": 1
      },
      "doubleSided": true,
      "extensions": {
        "ASOBO_material_day_night_switch": {
          "enabled": true
        }
      }
    },
    {
      "name": "material01",
      "pbrMetallicRoughness": {
        "baseColorFactor": [
          0.58799999952316284,
          0.58799999952316284,
          0.58799999952316284,
          1.0
        ],
        "roughnessFactor": 1.0,
        "metallicFactor": 0.0,
        "baseColorTexture": {
          "index": 2
        }
      },
      "emissiveFactor": [
        1.0,
        1.0,
        1.0
      ],
      "emissiveTexture": {
        "index": 3
      },
      "doubleSided": true,
      "extensions": {
        "ASOBO_material_day_night_switch": {
          "enabled": true
        }
      }
    }
  ],
  "textures": [
    {
      "source": 0,
      "name": "terminal_nalv4_skcl_termv4_01"
    },
    {
      "source": 1,
      "name": "terminal_nalv4_skcl_termv4_01_lm"
    },
    {
      "source": 2,
      "name": "terminal_nalv4_skcl_termv4_02"
    },
    {
      "source": 3,
      "name": "terminal_nalv4_skcl_termv4_02_lm"
    }
  ],
  "images": [
    {
      "uri": "terminal_nalv4_skcl_termv4_01.png"
    },
    {
      "uri": "terminal_nalv4_skcl_termv4_01_lm.png"
    },
    {
      "uri": "terminal_nalv4_skcl_termv4_02.png"
    },
    {
      "uri": "terminal_nalv4_skcl_termv4_02_lm.png"
    }
  ],
  "bufferViews": [
    {
      "buffer": 0,
      "byteOffset": 0,
      "byteLength": 39384
    },
    {
      "buffer": 0,
      "byteOffset": 39384,
      "byteLength": 65844,
      "byteStride": 12
    },
    {
      "buffer": 0,
      "byteOffset": 105228,
      "byteLength": 65844,
      "byteStride": 12
    },
    {
      "buffer": 0,
      "byteOffset": 171072,
      "byteLength": 43896,
      "byteStride": 8
    }
  ],
  "buffers": [
    {
      "byteLength": 214968,
      "uri": "terminal_nalV4.bin"
    }
  ]
}