{"accessors":[{"bufferView":0,"componentType":5126,"count":8313,"min":[-82.35842895507813,-0.05999999865889549,-93.36814880371094],"max":[119.02639770507813,22.5403995513916,13.192839622497559],"type":"VEC3","name":"node2_vertices#0_POSITION"},{"bufferView":0,"byteOffset":12,"componentType":5120,"count":8313,"type":"VEC4","name":"node2_vertices#0_TANGENT"},{"bufferView":0,"byteOffset":16,"componentType":5120,"count":8313,"type":"VEC4","name":"node2_vertices#0_NORMAL"},{"bufferView":0,"byteOffset":20,"componentType":5122,"count":8313,"type":"VEC2","name":"node2_vertices#0_TEXCOORD_0"},{"bufferView":0,"byteOffset":24,"componentType":5122,"count":8313,"type":"VEC2","name":"node2_vertices#0_TEXCOORD_1"},{"bufferView":0,"byteOffset":28,"componentType":5123,"count":8313,"type":"VEC4","name":"node2_vertices#0_COLOR_0"},{"bufferView":1,"componentType":5123,"count":10311,"type":"SCALAR","name":"node2_indices#0"},{"bufferView":0,"byteOffset":299268,"componentType":5126,"count":5445,"min":[-95.67682647705078,-0.009999999776482582,-106.02119445800781],"max":[140.90640258789063,21.1299991607666,171.62078857421876],"type":"VEC3","name":"node3_vertices#0_POSITION"},{"bufferView":0,"byteOffset":299280,"componentType":5120,"count":5445,"type":"VEC4","name":"node3_vertices#0_TANGENT"},{"bufferView":0,"byteOffset":299284,"componentType":5120,"count":5445,"type":"VEC4","name":"node3_vertices#0_NORMAL"},{"bufferView":0,"byteOffset":299288,"componentType":5122,"count":5445,"type":"VEC2","name":"node3_vertices#0_TEXCOORD_0"},{"bufferView":0,"byteOffset":299292,"componentType":5122,"count":5445,"type":"VEC2","name":"node3_vertices#0_TEXCOORD_1"},{"bufferView":0,"byteOffset":299296,"componentType":5123,"count":5445,"type":"VEC4","name":"node3_vertices#0_COLOR_0"},{"bufferView":1,"byteOffset":20622,"componentType":5123,"count":6471,"type":"SCALAR","name":"node3_indices#0"},{"bufferView":0,"byteOffset":495288,"componentType":5126,"count":2957,"min":[-149.29701232910157,0.0,-214.09701538085938],"max":[4.178860187530518,16.712499618530275,17.799999237060548],"type":"VEC3","name":"node2.001_vertices#0_POSITION"},{"bufferView":0,"byteOffset":495300,"componentType":5120,"count":2957,"type":"VEC4","name":"node2.001_vertices#0_TANGENT"},{"bufferView":0,"byteOffset":495304,"componentType":5120,"count":2957,"type":"VEC4","name":"node2.001_vertices#0_NORMAL"},{"bufferView":0,"byteOffset":495308,"componentType":5122,"count":2957,"type":"VEC2","name":"node2.001_vertices#0_TEXCOORD_0"},{"bufferView":0,"byteOffset":495312,"componentType":5122,"count":2957,"type":"VEC2","name":"node2.001_vertices#0_TEXCOORD_1"},{"bufferView":0,"byteOffset":495316,"componentType":5123,"count":2957,"type":"VEC4","name":"node2.001_vertices#0_COLOR_0"},{"bufferView":1,"byteOffset":33564,"componentType":5123,"count":3978,"type":"SCALAR","name":"node2.001_indices#0"},{"bufferView":0,"byteOffset":601740,"componentType":5126,"count":4249,"min":[-29.950000762939454,-0.25,-216.34799194335938],"max":[286.8110046386719,43.77629852294922,74.80000305175781],"type":"VEC3","name":"node3.001_vertices#0_POSITION"},{"bufferView":0,"byteOffset":601752,"componentType":5120,"count":4249,"type":"VEC4","name":"node3.001_vertices#0_TANGENT"},{"bufferView":0,"byteOffset":601756,"componentType":5120,"count":4249,"type":"VEC4","name":"node3.001_vertices#0_NORMAL"},{"bufferView":0,"byteOffset":601760,"componentType":5122,"count":4249,"type":"VEC2","name":"node3.001_vertices#0_TEXCOORD_0"},{"bufferView":0,"byteOffset":601764,"componentType":5122,"count":4249,"type":"VEC2","name":"node3.001_vertices#0_TEXCOORD_1"},{"bufferView":0,"byteOffset":601768,"componentType":5123,"count":4249,"type":"VEC4","name":"node3.001_vertices#0_COLOR_0"},{"bufferView":1,"byteOffset":41520,"componentType":5123,"count":5868,"type":"SCALAR","name":"node3.001_indices#0"}],"asset":{"generator":"Extended Khronos glTF Blender I/O v1.0.0","version":"2.0","extensions":{"ASOBO_asset_optimized":{"BoundingBoxMax":[286.8110046386719,43.77629852294922,171.62078857421876],"BoundingBoxMin":[-149.29701232910157,-0.25,-216.34799194335938],"MajorVersion":4,"MinorVersion":2},"ASOBO_normal_map_convention":{"tangent_space_convention":"DirectX"}}},"bufferViews":[{"buffer":0,"byteLength":754704,"byteStride":36,"target":34962,"name":"BufferViewVertexND"},{"buffer":0,"byteLength":53256,"byteOffset":754704,"target":34963,"name":"BufferViewIndex"}],"extensionsUsed":["ASOBO_normal_map_convention","MSFT_texture_dds","ASOBO_asset_optimized"],"extensionsRequired":["MSFT_texture_dds"],"materials":[{"name":"m0mat","doubleSided":true,"pbrMetallicRoughness":{"metallicFactor":0.0,"roughnessFactor":0.5,"baseColorTexture":{"index":0}}},{"name":"m1mat","doubleSided":true,"pbrMetallicRoughness":{"metallicFactor":0.0,"roughnessFactor":0.5,"baseColorTexture":{"index":1}}},{"name":"m0mat.001","doubleSided":true,"pbrMetallicRoughness":{"metallicFactor":0.0,"roughnessFactor":0.5,"baseColorTexture":{"index":2}}},{"name":"m1mat.001","doubleSided":true,"pbrMetallicRoughness":{"metallicFactor":0.0,"roughnessFactor":0.5,"baseColorTexture":{"index":3}}}],"meshes":[{"primitives":[{"attributes":{"COLOR_0":5,"NORMAL":2,"POSITION":0,"TANGENT":1,"TEXCOORD_0":3,"TEXCOORD_1":4},"indices":6,"material":0,"mode":4,"extras":{"ASOBO_primitive":{"PrimitiveCount":3437,"VertexType":"VTX","VertexVersion":2}}}],"name":"node2"},{"primitives":[{"attributes":{"COLOR_0":12,"NORMAL":9,"POSITION":7,"TANGENT":8,"TEXCOORD_0":10,"TEXCOORD_1":11},"indices":13,"material":1,"mode":4,"extras":{"ASOBO_primitive":{"PrimitiveCount":2157,"VertexType":"VTX","VertexVersion":2}}}],"name":"node3"},{"primitives":[{"attributes":{"COLOR_0":19,"NORMAL":16,"POSITION":14,"TANGENT":15,"TEXCOORD_0":17,"TEXCOORD_1":18},"indices":20,"material":2,"mode":4,"extras":{"ASOBO_primitive":{"PrimitiveCount":1326,"VertexType":"VTX","VertexVersion":2}}}],"name":"node2.001"},{"primitives":[{"attributes":{"COLOR_0":26,"NORMAL":23,"POSITION":21,"TANGENT":22,"TEXCOORD_0":24,"TEXCOORD_1":25},"indices":27,"material":3,"mode":4,"extras":{"ASOBO_primitive":{"PrimitiveCount":1956,"VertexType":"VTX","VertexVersion":2}}}],"name":"node3.001"}],"nodes":[{"mesh":0,"name":"node2"},{"mesh":1,"name":"node3"},{"name":"node1","children":[0,1]},{"rotation":[0.0,1.0,0.0,-4.3711388286737938e-8],"name":"node0","children":[2]},{"mesh":2,"name":"node2.001"},{"mesh":3,"name":"node3.001"},{"name":"node1.001","children":[4,5]},{"translation":[69.61418151855469,0.0,-158.69236755371095],"rotation":[0.0,1.0,0.0,-4.3711388286737938e-8],"name":"node0.001","children":[6]},{"name":"node1.002"},{"translation":[-39.975833892822269,0.0,99.0128936767578],"rotation":[0.0,1.0,0.0,-4.3711388286737938e-8],"name":"node0.002","children":[8]}],"scene":0,"scenes":[{"nodes":[3,7,9],"name":"Scene"}],"textures":[{"extensions":{"MSFT_texture_dds":{"source":0}}},{"extensions":{"MSFT_texture_dds":{"source":1}}},{"extensions":{"MSFT_texture_dds":{"source":2}}},{"extensions":{"MSFT_texture_dds":{"source":3}}}],"buffers":[{"byteLength":807960,"uri":"SKCLAirport.bin"}],"images":[{"uri":"SKCL_TERMV4_03.JPG.DDS","name":"skcl_termv4_03","extras":"ASOBO_image_converted_meta"},{"uri":"SKCL_TERMV4_04.JPG.DDS","name":"skcl_termv4_04","extras":"ASOBO_image_converted_meta"},{"uri":"SKCL_TERMV4_01.JPG.DDS","name":"skcl_termv4_01","extras":"ASOBO_image_converted_meta"},{"uri":"SKCL_TERMV4_02.JPG.DDS","name":"skcl_termv4_02","extras":"ASOBO_image_converted_meta"}]}
