{"accessors":[{"bufferView":0,"componentType":5126,"count":4,"min":[-0.15000000596046449,-0.2975200116634369,-0.15000000596046449],"max":[0.15000000596046449,-0.2975200116634369,0.15000000596046449],"type":"VEC3","name":"part000_vertices#0_POSITION"},{"bufferView":0,"byteOffset":12,"componentType":5120,"count":4,"type":"VEC4","name":"part000_vertices#0_TANGENT"},{"bufferView":0,"byteOffset":16,"componentType":5120,"count":4,"type":"VEC4","name":"part000_vertices#0_NORMAL"},{"bufferView":0,"byteOffset":20,"componentType":5122,"count":4,"type":"VEC2","name":"part000_vertices#0_TEXCOORD_0"},{"bufferView":0,"byteOffset":24,"componentType":5122,"count":4,"type":"VEC2","name":"part000_vertices#0_TEXCOORD_1"},{"bufferView":0,"byteOffset":28,"componentType":5123,"count":4,"type":"VEC4","name":"part000_vertices#0_COLOR_0"},{"bufferView":1,"componentType":5123,"count":6,"type":"SCALAR","name":"part000_indices#0"}],"asset":{"generator":"ModelConverterX","version":"2.0","extensions":{"ASOBO_asset_optimized":{"BoundingBoxMax":[0.15000000596046449,-0.2975200116634369,0.15000000596046449],"BoundingBoxMin":[-0.15000000596046449,-0.2975200116634369,-0.15000000596046449],"MajorVersion":4,"MinorVersion":3,"UseCheckerboardMaterialForMissingTextures":true}}},"bufferViews":[{"buffer":0,"byteLength":144,"byteStride":36,"target":34962,"name":"BufferViewVertexND"},{"buffer":0,"byteLength":12,"byteOffset":144,"target":34963,"name":"BufferViewIndex"}],"materials":[{"name":"material00","pbrMetallicRoughness":{"baseColorFactor":[0.10980399698019028,0.5843139886856079,0.6941180229187012,1.0],"metallicFactor":0.0},"extensions":{"ASOBO_material_day_night_switch":{}}}],"meshes":[{"primitives":[{"attributes":{"COLOR_0":5,"NORMAL":2,"POSITION":0,"TANGENT":1,"TEXCOORD_0":3,"TEXCOORD_1":4},"indices":6,"material":0,"mode":4,"extras":{"ASOBO_primitive":{"PrimitiveCount":2,"VertexType":"VTX","VertexVersion":2}}}],"name":"part000"}],"nodes":[{"name":"node0","children":[1]},{"mesh":0,"name":"node1"}],"scene":0,"scenes":[{"nodes":[0]}],"extensionsUsed":["ASOBO_material_day_night_switch","ASOBO_asset_optimized"],"buffers":[{"byteLength":156,"uri":"grass3D_LOD5.bin"}]}
