{"accessors":[{"bufferView":0,"componentType":5126,"count":16,"min":[-6.278339862823486,26.802400588989259,-2.512470006942749],"max":[6.221529960632324,33.76525115966797,4.136919975280762],"type":"VEC3","name":"part000_vertices#0_POSITION"},{"bufferView":0,"byteOffset":12,"componentType":5120,"count":16,"type":"VEC4","name":"part000_vertices#0_TANGENT"},{"bufferView":0,"byteOffset":16,"componentType":5120,"count":16,"type":"VEC4","name":"part000_vertices#0_NORMAL"},{"bufferView":0,"byteOffset":20,"componentType":5122,"count":16,"type":"VEC2","name":"part000_vertices#0_TEXCOORD_0"},{"bufferView":0,"byteOffset":24,"componentType":5122,"count":16,"type":"VEC2","name":"part000_vertices#0_TEXCOORD_1"},{"bufferView":0,"byteOffset":28,"componentType":5123,"count":16,"type":"VEC4","name":"part000_vertices#0_COLOR_0"},{"bufferView":1,"componentType":5123,"count":24,"type":"SCALAR","name":"part000_indices#0"},{"bufferView":0,"byteOffset":576,"componentType":5126,"count":184,"min":[-2.1926000118255617,0.0,-0.4699999988079071],"max":[2.162600040435791,33.5629997253418,1.056589961051941],"type":"VEC3","name":"part001_vertices#0_POSITION"},{"bufferView":0,"byteOffset":588,"componentType":5120,"count":184,"type":"VEC4","name":"part001_vertices#0_TANGENT"},{"bufferView":0,"byteOffset":592,"componentType":5120,"count":184,"type":"VEC4","name":"part001_vertices#0_NORMAL"},{"bufferView":0,"byteOffset":596,"componentType":5122,"count":184,"type":"VEC2","name":"part001_vertices#0_TEXCOORD_0"},{"bufferView":0,"byteOffset":600,"componentType":5122,"count":184,"type":"VEC2","name":"part001_vertices#0_TEXCOORD_1"},{"bufferView":0,"byteOffset":604,"componentType":5123,"count":184,"type":"VEC4","name":"part001_vertices#0_COLOR_0"},{"bufferView":1,"byteOffset":48,"componentType":5123,"count":276,"type":"SCALAR","name":"part001_indices#0"}],"asset":{"generator":"ModelConverterX","version":"2.0","extensions":{"ASOBO_asset_optimized":{"BoundingBoxMax":[6.221529960632324,33.76525115966797,4.136919975280762],"BoundingBoxMin":[-6.278339862823486,0.0,-2.512470006942749],"MajorVersion":4,"MinorVersion":3,"UseCheckerboardMaterialForMissingTextures":true}}},"bufferViews":[{"buffer":0,"byteLength":7200,"byteStride":36,"target":34962,"name":"BufferViewVertexND"},{"buffer":0,"byteLength":600,"byteOffset":7200,"target":34963,"name":"BufferViewIndex"}],"extensionsRequired":["MSFT_texture_dds"],"materials":[{"name":"material00","emissiveTexture":{"index":1},"emissiveFactor":[1.0,1.0,1.0],"pbrMetallicRoughness":{"metallicFactor":0.0,"baseColorTexture":{"index":0}},"extensions":{"ASOBO_material_day_night_switch":{},"ASOBO_material_shadow_options":{"noCastShadow":true}}},{"name":"material01","doubleSided":true,"emissiveTexture":{"index":3},"emissiveFactor":[1.0,1.0,1.0],"pbrMetallicRoughness":{"baseColorFactor":[0.5879999995231628,0.5879999995231628,0.5879999995231628,1.0],"metallicFactor":0.0,"baseColorTexture":{"index":2}},"extensions":{"ASOBO_material_day_night_switch":{}}}],"meshes":[{"primitives":[{"attributes":{"COLOR_0":5,"NORMAL":2,"POSITION":0,"TANGENT":1,"TEXCOORD_0":3,"TEXCOORD_1":4},"indices":6,"material":0,"mode":4,"extras":{"ASOBO_primitive":{"PrimitiveCount":8,"VertexType":"VTX","VertexVersion":2}}}],"name":"part000"},{"primitives":[{"attributes":{"COLOR_0":12,"NORMAL":9,"POSITION":7,"TANGENT":8,"TEXCOORD_0":10,"TEXCOORD_1":11},"indices":13,"material":1,"mode":4,"extras":{"ASOBO_primitive":{"PrimitiveCount":92,"VertexType":"VTX","VertexVersion":2}}}],"name":"part001"}],"nodes":[{"name":"node0","children":[1,2]},{"mesh":0,"name":"node1"},{"mesh":1,"name":"node2"}],"scene":0,"scenes":[{"nodes":[0]}],"textures":[{"extensions":{"MSFT_texture_dds":{"source":0}}},{"extensions":{"MSFT_texture_dds":{"source":1}}},{"extensions":{"MSFT_texture_dds":{"source":2}}},{"extensions":{"MSFT_texture_dds":{"source":3}}}],"extensionsUsed":["ASOBO_material_shadow_options","ASOBO_material_day_night_switch","MSFT_texture_dds","ASOBO_asset_optimized"],"buffers":[{"byteLength":7800,"uri":"lampsTerm_LOD0.bin"}],"images":[{"uri":"LAMPSTERM_DUMMY.PNG.DDS","extras":"ASOBO_image_converted_meta"},{"uri":"LAMPSTERM_WHITELIGHTEFFECT.PNG.DDS","extras":"ASOBO_image_converted_meta"},{"uri":"LAMPSTERM_LAMPSCARGA.PNG.DDS","extras":"ASOBO_image_converted_meta"},{"uri":"LAMPSTERM_LAMPSCARGA_LM.PNG.DDS","extras":"ASOBO_image_converted_meta"}]}
