{"accessors":[{"bufferView":0,"componentType":5126,"count":276,"min":[-0.924780011177063,0.0023300000466406347,-0.11500000208616257],"max":[0.924780011177063,0.39500001072883608,3.2100400924682619],"type":"VEC3","name":"part000_vertices#0_POSITION"},{"bufferView":0,"byteOffset":12,"componentType":5120,"count":276,"type":"VEC4","name":"part000_vertices#0_TANGENT"},{"bufferView":0,"byteOffset":16,"componentType":5120,"count":276,"type":"VEC4","name":"part000_vertices#0_NORMAL"},{"bufferView":0,"byteOffset":20,"componentType":5122,"count":276,"type":"VEC2","name":"part000_vertices#0_TEXCOORD_0"},{"bufferView":0,"byteOffset":24,"componentType":5122,"count":276,"type":"VEC2","name":"part000_vertices#0_TEXCOORD_1"},{"bufferView":0,"byteOffset":28,"componentType":5123,"count":276,"type":"VEC4","name":"part000_vertices#0_COLOR_0"},{"bufferView":1,"componentType":5123,"count":462,"type":"SCALAR","name":"part000_indices#0"}],"asset":{"generator":"ModelConverterX","version":"2.0","extensions":{"ASOBO_asset_optimized":{"BoundingBoxMax":[0.924780011177063,0.39500001072883608,3.2100400924682619],"BoundingBoxMin":[-0.924780011177063,0.0023300000466406347,-0.11500000208616257],"MajorVersion":4,"MinorVersion":3,"UseCheckerboardMaterialForMissingTextures":true}}},"bufferViews":[{"buffer":0,"byteLength":9936,"byteStride":36,"target":34962,"name":"BufferViewVertexND"},{"buffer":0,"byteLength":924,"byteOffset":9936,"target":34963,"name":"BufferViewIndex"}],"extensionsRequired":["MSFT_texture_dds"],"materials":[{"name":"material00","doubleSided":true,"emissiveTexture":{"index":1},"emissiveFactor":[1.0,1.0,1.0],"pbrMetallicRoughness":{"baseColorFactor":[0.5879999995231628,0.5879999995231628,0.5879999995231628,1.0],"metallicFactor":0.0,"baseColorTexture":{"index":0}},"extensions":{"ASOBO_material_day_night_switch":{}}}],"meshes":[{"primitives":[{"attributes":{"COLOR_0":5,"NORMAL":2,"POSITION":0,"TANGENT":1,"TEXCOORD_0":3,"TEXCOORD_1":4},"indices":6,"material":0,"mode":4,"extras":{"ASOBO_primitive":{"PrimitiveCount":154,"VertexType":"VTX","VertexVersion":2}}}],"name":"part000"}],"nodes":[{"name":"node0","children":[1]},{"mesh":0,"name":"node1"}],"scene":0,"scenes":[{"nodes":[0]}],"textures":[{"extensions":{"MSFT_texture_dds":{"source":0}}},{"extensions":{"MSFT_texture_dds":{"source":1}}}],"extensionsUsed":["ASOBO_material_day_night_switch","MSFT_texture_dds","ASOBO_asset_optimized"],"buffers":[{"byteLength":10860,"uri":"ramp_portalataAVA_LOD0.bin"}],"images":[{"uri":"RAMP_PORTALATAAVA_SKBQ_ELEMENTOS.PNG.DDS","extras":"ASOBO_image_converted_meta"},{"uri":"RAMP_PORTALATAAVA_SKBQ_ELEMENTOS_LM.PNG.DDS","extras":"ASOBO_image_converted_meta"}]}
