{"accessors":[{"bufferView":0,"componentType":5126,"count":2088,"min":[-149.2969970703125,0.0,-214.0970001220703],"max":[4.178860187530518,16.712499618530275,17.799999237060548],"type":"VEC3","name":"part000_vertices#0_POSITION"},{"bufferView":0,"byteOffset":12,"componentType":5120,"count":2088,"type":"VEC4","name":"part000_vertices#0_TANGENT"},{"bufferView":0,"byteOffset":16,"componentType":5120,"count":2088,"type":"VEC4","name":"part000_vertices#0_NORMAL"},{"bufferView":0,"byteOffset":20,"componentType":5122,"count":2088,"type":"VEC2","name":"part000_vertices#0_TEXCOORD_0"},{"bufferView":0,"byteOffset":24,"componentType":5122,"count":2088,"type":"VEC2","name":"part000_vertices#0_TEXCOORD_1"},{"bufferView":0,"byteOffset":28,"componentType":5123,"count":2088,"type":"VEC4","name":"part000_vertices#0_COLOR_0"},{"bufferView":1,"componentType":5123,"count":3978,"type":"SCALAR","name":"part000_indices#0"},{"bufferView":0,"byteOffset":75168,"componentType":5126,"count":3412,"min":[-29.950000762939454,-0.25,-216.34800720214845],"max":[286.8110046386719,43.77629852294922,74.80000305175781],"type":"VEC3","name":"part001_vertices#0_POSITION"},{"bufferView":0,"byteOffset":75180,"componentType":5120,"count":3412,"type":"VEC4","name":"part001_vertices#0_TANGENT"},{"bufferView":0,"byteOffset":75184,"componentType":5120,"count":3412,"type":"VEC4","name":"part001_vertices#0_NORMAL"},{"bufferView":0,"byteOffset":75188,"componentType":5122,"count":3412,"type":"VEC2","name":"part001_vertices#0_TEXCOORD_0"},{"bufferView":0,"byteOffset":75192,"componentType":5122,"count":3412,"type":"VEC2","name":"part001_vertices#0_TEXCOORD_1"},{"bufferView":0,"byteOffset":75196,"componentType":5123,"count":3412,"type":"VEC4","name":"part001_vertices#0_COLOR_0"},{"bufferView":1,"byteOffset":7956,"componentType":5123,"count":5868,"type":"SCALAR","name":"part001_indices#0"}],"asset":{"generator":"ModelConverterX","version":"2.0","extensions":{"ASOBO_asset_optimized":{"BoundingBoxMax":[286.8110046386719,43.77629852294922,74.80000305175781],"BoundingBoxMin":[-149.2969970703125,-0.25,-216.34800720214845],"MajorVersion":4,"MinorVersion":3,"UseCheckerboardMaterialForMissingTextures":true}}},"bufferViews":[{"buffer":0,"byteLength":198000,"byteStride":36,"target":34962,"name":"BufferViewVertexND"},{"buffer":0,"byteLength":19692,"byteOffset":198000,"target":34963,"name":"BufferViewIndex"}],"extensionsRequired":["MSFT_texture_dds"],"materials":[{"name":"material00","doubleSided":true,"emissiveTexture":{"index":1},"emissiveFactor":[1.0,1.0,1.0],"pbrMetallicRoughness":{"baseColorFactor":[0.5879999995231628,0.5879999995231628,0.5879999995231628,1.0],"metallicFactor":0.0,"baseColorTexture":{"index":0}},"extensions":{"ASOBO_material_day_night_switch":{}}},{"name":"material01","doubleSided":true,"emissiveTexture":{"index":3},"emissiveFactor":[1.0,1.0,1.0],"pbrMetallicRoughness":{"baseColorFactor":[0.5879999995231628,0.5879999995231628,0.5879999995231628,1.0],"metallicFactor":0.0,"baseColorTexture":{"index":2}},"extensions":{"ASOBO_material_day_night_switch":{}}}],"meshes":[{"primitives":[{"attributes":{"COLOR_0":5,"NORMAL":2,"POSITION":0,"TANGENT":1,"TEXCOORD_0":3,"TEXCOORD_1":4},"indices":6,"material":0,"mode":4,"extras":{"ASOBO_primitive":{"PrimitiveCount":1326,"VertexType":"VTX","VertexVersion":2}}}],"name":"part000"},{"primitives":[{"attributes":{"COLOR_0":12,"NORMAL":9,"POSITION":7,"TANGENT":8,"TEXCOORD_0":10,"TEXCOORD_1":11},"indices":13,"material":1,"mode":4,"extras":{"ASOBO_primitive":{"PrimitiveCount":1956,"VertexType":"VTX","VertexVersion":2}}}],"name":"part001"}],"nodes":[{"name":"node0","children":[1,2]},{"mesh":0,"name":"node1"},{"mesh":1,"name":"node2"}],"scene":0,"scenes":[{"nodes":[0]}],"textures":[{"extensions":{"MSFT_texture_dds":{"source":0}}},{"extensions":{"MSFT_texture_dds":{"source":1}}},{"extensions":{"MSFT_texture_dds":{"source":2}}},{"extensions":{"MSFT_texture_dds":{"source":3}}}],"extensionsUsed":["ASOBO_material_day_night_switch","MSFT_texture_dds","ASOBO_asset_optimized"],"buffers":[{"byteLength":217692,"uri":"terminal_nalV4.bin"}],"images":[{"uri":"TERMINAL_NALV4_SKCL_TERMV4_01.PNG.DDS","extras":"ASOBO_image_converted_meta"},{"uri":"TERMINAL_NALV4_SKCL_TERMV4_01_LM.PNG.DDS","extras":"ASOBO_image_converted_meta"},{"uri":"TERMINAL_NALV4_SKCL_TERMV4_02.PNG.DDS","extras":"ASOBO_image_converted_meta"},{"uri":"TERMINAL_NALV4_SKCL_TERMV4_02_LM.PNG.DDS","extras":"ASOBO_image_converted_meta"}]}
