{"accessors":[{"bufferView":0,"componentType":5126,"count":6547,"min":[-82.35842895507813,-0.05999999865889549,-93.36814880371094],"max":[119.02639770507813,22.5403995513916,13.192839622497559],"type":"VEC3","name":"part000_vertices#0_POSITION"},{"bufferView":0,"byteOffset":12,"componentType":5120,"count":6547,"type":"VEC4","name":"part000_vertices#0_TANGENT"},{"bufferView":0,"byteOffset":16,"componentType":5120,"count":6547,"type":"VEC4","name":"part000_vertices#0_NORMAL"},{"bufferView":0,"byteOffset":20,"componentType":5122,"count":6547,"type":"VEC2","name":"part000_vertices#0_TEXCOORD_0"},{"bufferView":0,"byteOffset":24,"componentType":5122,"count":6547,"type":"VEC2","name":"part000_vertices#0_TEXCOORD_1"},{"bufferView":0,"byteOffset":28,"componentType":5123,"count":6547,"type":"VEC4","name":"part000_vertices#0_COLOR_0"},{"bufferView":1,"componentType":5123,"count":10311,"type":"SCALAR","name":"part000_indices#0"},{"bufferView":0,"byteOffset":235692,"componentType":5126,"count":3758,"min":[-95.67682647705078,-0.009999999776482582,-106.02120208740235],"max":[140.90640258789063,21.1299991607666,171.6208038330078],"type":"VEC3","name":"part001_vertices#0_POSITION"},{"bufferView":0,"byteOffset":235704,"componentType":5120,"count":3758,"type":"VEC4","name":"part001_vertices#0_TANGENT"},{"bufferView":0,"byteOffset":235708,"componentType":5120,"count":3758,"type":"VEC4","name":"part001_vertices#0_NORMAL"},{"bufferView":0,"byteOffset":235712,"componentType":5122,"count":3758,"type":"VEC2","name":"part001_vertices#0_TEXCOORD_0"},{"bufferView":0,"byteOffset":235716,"componentType":5122,"count":3758,"type":"VEC2","name":"part001_vertices#0_TEXCOORD_1"},{"bufferView":0,"byteOffset":235720,"componentType":5123,"count":3758,"type":"VEC4","name":"part001_vertices#0_COLOR_0"},{"bufferView":1,"byteOffset":20622,"componentType":5123,"count":6471,"type":"SCALAR","name":"part001_indices#0"}],"asset":{"generator":"ModelConverterX","version":"2.0","extensions":{"ASOBO_asset_optimized":{"BoundingBoxMax":[140.90640258789063,22.5403995513916,171.6208038330078],"BoundingBoxMin":[-95.67682647705078,-0.05999999865889549,-106.02120208740235],"MajorVersion":4,"MinorVersion":3,"UseCheckerboardMaterialForMissingTextures":true}}},"bufferViews":[{"buffer":0,"byteLength":370980,"byteStride":36,"target":34962,"name":"BufferViewVertexND"},{"buffer":0,"byteLength":33564,"byteOffset":370980,"target":34963,"name":"BufferViewIndex"}],"extensionsRequired":["MSFT_texture_dds"],"materials":[{"name":"material00","doubleSided":true,"emissiveTexture":{"index":1},"emissiveFactor":[1.0,1.0,1.0],"pbrMetallicRoughness":{"baseColorFactor":[0.5879999995231628,0.5879999995231628,0.5879999995231628,1.0],"metallicFactor":0.0,"baseColorTexture":{"index":0}},"extensions":{"ASOBO_material_day_night_switch":{}}},{"name":"material01","doubleSided":true,"emissiveTexture":{"index":3},"emissiveFactor":[1.0,1.0,1.0],"pbrMetallicRoughness":{"baseColorFactor":[0.5879999995231628,0.5879999995231628,0.5879999995231628,1.0],"metallicFactor":0.0,"baseColorTexture":{"index":2}},"extensions":{"ASOBO_material_day_night_switch":{}}}],"meshes":[{"primitives":[{"attributes":{"COLOR_0":5,"NORMAL":2,"POSITION":0,"TANGENT":1,"TEXCOORD_0":3,"TEXCOORD_1":4},"indices":6,"material":0,"mode":4,"extras":{"ASOBO_primitive":{"PrimitiveCount":3437,"VertexType":"VTX","VertexVersion":2}}}],"name":"part000"},{"primitives":[{"attributes":{"COLOR_0":12,"NORMAL":9,"POSITION":7,"TANGENT":8,"TEXCOORD_0":10,"TEXCOORD_1":11},"indices":13,"material":1,"mode":4,"extras":{"ASOBO_primitive":{"PrimitiveCount":2157,"VertexType":"VTX","VertexVersion":2}}}],"name":"part001"}],"nodes":[{"name":"node0","children":[1,2]},{"mesh":0,"name":"node1"},{"mesh":1,"name":"node2"}],"scene":0,"scenes":[{"nodes":[0]}],"textures":[{"extensions":{"MSFT_texture_dds":{"source":0}}},{"extensions":{"MSFT_texture_dds":{"source":1}}},{"extensions":{"MSFT_texture_dds":{"source":2}}},{"extensions":{"MSFT_texture_dds":{"source":3}}}],"extensionsUsed":["ASOBO_material_day_night_switch","MSFT_texture_dds","ASOBO_asset_optimized"],"buffers":[{"byteLength":404544,"uri":"terminal_interV4.bin"}],"images":[{"uri":"TERMINAL_INTERV4_SKCL_TERMV4_03.PNG.DDS","extras":"ASOBO_image_converted_meta"},{"uri":"TERMINAL_INTERV4_SKCL_TERMV4_03_LM.PNG.DDS","extras":"ASOBO_image_converted_meta"},{"uri":"TERMINAL_INTERV4_SKCL_TERMV4_04.PNG.DDS","extras":"ASOBO_image_converted_meta"},{"uri":"TERMINAL_INTERV4_SKCL_TERMV4_04_LM.PNG.DDS","extras":"ASOBO_image_converted_meta"}]}
