{"accessors":[{"bufferView":0,"componentType":5126,"count":4,"min":[-0.25,0.019999999552965165,-0.25],"max":[0.25,0.019999999552965165,0.25],"type":"VEC3","name":"part000_vertices#0_POSITION"},{"bufferView":0,"byteOffset":12,"componentType":5120,"count":4,"type":"VEC4","name":"part000_vertices#0_TANGENT"},{"bufferView":0,"byteOffset":16,"componentType":5120,"count":4,"type":"VEC4","name":"part000_vertices#0_NORMAL"},{"bufferView":0,"byteOffset":20,"componentType":5122,"count":4,"type":"VEC2","name":"part000_vertices#0_TEXCOORD_0"},{"bufferView":0,"byteOffset":24,"componentType":5122,"count":4,"type":"VEC2","name":"part000_vertices#0_TEXCOORD_1"},{"bufferView":0,"byteOffset":28,"componentType":5123,"count":4,"type":"VEC4","name":"part000_vertices#0_COLOR_0"},{"bufferView":1,"componentType":5123,"count":6,"type":"SCALAR","name":"part000_indices#0"},{"bufferView":0,"byteOffset":144,"componentType":5126,"count":4,"min":[0.013530000112950802,-2.013849973678589,-2.092789888381958],"max":[0.013530000112950802,2.025360107421875,1.9464099407196046],"type":"VEC3","name":"part001_vertices#0_POSITION"},{"bufferView":0,"byteOffset":156,"componentType":5120,"count":4,"type":"VEC4","name":"part001_vertices#0_TANGENT"},{"bufferView":0,"byteOffset":160,"componentType":5120,"count":4,"type":"VEC4","name":"part001_vertices#0_NORMAL"},{"bufferView":0,"byteOffset":164,"componentType":5122,"count":4,"type":"VEC2","name":"part001_vertices#0_TEXCOORD_0"},{"bufferView":0,"byteOffset":168,"componentType":5122,"count":4,"type":"VEC2","name":"part001_vertices#0_TEXCOORD_1"},{"bufferView":0,"byteOffset":172,"componentType":5123,"count":4,"type":"VEC4","name":"part001_vertices#0_COLOR_0"},{"bufferView":1,"byteOffset":12,"componentType":5123,"count":6,"type":"SCALAR","name":"part001_indices#0"},{"bufferView":0,"byteOffset":288,"componentType":5126,"count":4,"min":[0.05000000074505806,-2.013849973678589,-1.9338899850845338],"max":[0.05000000074505806,2.025360107421875,2.1053099632263185],"type":"VEC3","name":"part002_vertices#0_POSITION"},{"bufferView":0,"byteOffset":300,"componentType":5120,"count":4,"type":"VEC4","name":"part002_vertices#0_TANGENT"},{"bufferView":0,"byteOffset":304,"componentType":5120,"count":4,"type":"VEC4","name":"part002_vertices#0_NORMAL"},{"bufferView":0,"byteOffset":308,"componentType":5122,"count":4,"type":"VEC2","name":"part002_vertices#0_TEXCOORD_0"},{"bufferView":0,"byteOffset":312,"componentType":5122,"count":4,"type":"VEC2","name":"part002_vertices#0_TEXCOORD_1"},{"bufferView":0,"byteOffset":316,"componentType":5123,"count":4,"type":"VEC4","name":"part002_vertices#0_COLOR_0"},{"bufferView":1,"byteOffset":24,"componentType":5123,"count":6,"type":"SCALAR","name":"part002_indices#0"}],"asset":{"generator":"ModelConverterX","version":"2.0","extensions":{"ASOBO_asset_optimized":{"BoundingBoxMax":[0.25,2.025360107421875,2.1053099632263185],"BoundingBoxMin":[-0.25,-2.013849973678589,-2.092789888381958],"MajorVersion":4,"MinorVersion":3,"UseCheckerboardMaterialForMissingTextures":true}}},"bufferViews":[{"buffer":0,"byteLength":432,"byteStride":36,"target":34962,"name":"BufferViewVertexND"},{"buffer":0,"byteLength":36,"byteOffset":432,"target":34963,"name":"BufferViewIndex"}],"extensionsRequired":["MSFT_texture_dds"],"materials":[{"name":"material00","emissiveTexture":{"index":1},"emissiveFactor":[1.0,1.0,1.0],"pbrMetallicRoughness":{"baseColorFactor":[0.5879999995231628,0.5879999995231628,0.5879999995231628,1.0],"metallicFactor":0.0,"baseColorTexture":{"index":0}},"extensions":{"ASOBO_material_day_night_switch":{},"ASOBO_material_shadow_options":{"noCastShadow":true}}},{"name":"material01","emissiveTexture":{"index":2},"emissiveFactor":[1.0,1.0,1.0],"pbrMetallicRoughness":{"baseColorFactor":[0.5879999995231628,0.5879999995231628,0.5879999995231628,1.0],"metallicFactor":0.0,"baseColorTexture":{"index":0}},"extensions":{"ASOBO_material_day_night_switch":{},"ASOBO_material_shadow_options":{"noCastShadow":true}}},{"name":"material02","doubleSided":true,"emissiveTexture":{"index":4},"emissiveFactor":[1.0,1.0,1.0],"pbrMetallicRoughness":{"baseColorFactor":[0.5879999995231628,0.5879999995231628,0.5879999995231628,1.0],"metallicFactor":0.0,"baseColorTexture":{"index":3}},"extensions":{"ASOBO_material_day_night_switch":{},"ASOBO_material_shadow_options":{"noCastShadow":true}}}],"meshes":[{"primitives":[{"attributes":{"COLOR_0":5,"NORMAL":2,"POSITION":0,"TANGENT":1,"TEXCOORD_0":3,"TEXCOORD_1":4},"indices":6,"material":2,"mode":4,"extras":{"ASOBO_primitive":{"PrimitiveCount":2,"VertexType":"VTX","VertexVersion":2}}}],"name":"part000"},{"primitives":[{"attributes":{"COLOR_0":12,"NORMAL":9,"POSITION":7,"TANGENT":8,"TEXCOORD_0":10,"TEXCOORD_1":11},"indices":13,"material":0,"mode":4,"extras":{"ASOBO_primitive":{"PrimitiveCount":2,"VertexType":"VTX","VertexVersion":2}}}],"name":"part001"},{"primitives":[{"attributes":{"COLOR_0":19,"NORMAL":16,"POSITION":14,"TANGENT":15,"TEXCOORD_0":17,"TEXCOORD_1":18},"indices":20,"material":1,"mode":4,"extras":{"ASOBO_primitive":{"PrimitiveCount":2,"VertexType":"VTX","VertexVersion":2}}}],"name":"part002"}],"nodes":[{"name":"node0","children":[1,2,3]},{"mesh":0,"name":"node1"},{"mesh":1,"name":"node2"},{"mesh":2,"name":"node3"}],"scene":0,"scenes":[{"nodes":[0]}],"textures":[{"extensions":{"MSFT_texture_dds":{"source":0}}},{"extensions":{"MSFT_texture_dds":{"source":1}}},{"extensions":{"MSFT_texture_dds":{"source":2}}},{"extensions":{"MSFT_texture_dds":{"source":3}}},{"extensions":{"MSFT_texture_dds":{"source":4}}}],"extensionsUsed":["ASOBO_material_shadow_options","ASOBO_material_day_night_switch","MSFT_texture_dds","ASOBO_asset_optimized"],"buffers":[{"byteLength":468,"uri":"whiteLight_LOD0.bin"}],"images":[{"uri":"WHITELIGHT_DUMMY.PNG.DDS","extras":"ASOBO_image_converted_meta"},{"uri":"WHITELIGHT_YELLOWLIGHTEFFECT.PNG.DDS","extras":"ASOBO_image_converted_meta"},{"uri":"WHITELIGHT_WHITELIGHTEFFECT.PNG.DDS","extras":"ASOBO_image_converted_meta"},{"uri":"WHITELIGHT_LAMPFLOOR.PNG.DDS","extras":"ASOBO_image_converted_meta"},{"uri":"WHITELIGHT_WHITEYELLOW_LIGHT_LM.PNG.DDS","extras":"ASOBO_image_converted_meta"}]}
