{"accessors":[{"bufferView":0,"componentType":5126,"count":892,"min":[-15.605199813842774,-0.011699999682605267,-1.809999942779541],"max":[-0.03999999910593033,9.697500228881836,12.362500190734864],"type":"VEC3","name":"part000_vertices#0_POSITION"},{"bufferView":0,"byteOffset":12,"componentType":5120,"count":892,"type":"VEC4","name":"part000_vertices#0_TANGENT"},{"bufferView":0,"byteOffset":16,"componentType":5120,"count":892,"type":"VEC4","name":"part000_vertices#0_NORMAL"},{"bufferView":0,"byteOffset":20,"componentType":5122,"count":892,"type":"VEC2","name":"part000_vertices#0_TEXCOORD_0"},{"bufferView":0,"byteOffset":24,"componentType":5122,"count":892,"type":"VEC2","name":"part000_vertices#0_TEXCOORD_1"},{"bufferView":0,"byteOffset":28,"componentType":5123,"count":892,"type":"VEC4","name":"part000_vertices#0_COLOR_0"},{"bufferView":1,"componentType":5123,"count":1512,"type":"SCALAR","name":"part000_indices#0"},{"bufferView":0,"byteOffset":32112,"componentType":5126,"count":4,"min":[-0.5,-0.20000000298023225,-0.5],"max":[0.5,-0.20000000298023225,0.5],"type":"VEC3","name":"part001_vertices#0_POSITION"},{"bufferView":0,"byteOffset":32124,"componentType":5120,"count":4,"type":"VEC4","name":"part001_vertices#0_TANGENT"},{"bufferView":0,"byteOffset":32128,"componentType":5120,"count":4,"type":"VEC4","name":"part001_vertices#0_NORMAL"},{"bufferView":0,"byteOffset":32132,"componentType":5122,"count":4,"type":"VEC2","name":"part001_vertices#0_TEXCOORD_0"},{"bufferView":0,"byteOffset":32136,"componentType":5122,"count":4,"type":"VEC2","name":"part001_vertices#0_TEXCOORD_1"},{"bufferView":0,"byteOffset":32140,"componentType":5123,"count":4,"type":"VEC4","name":"part001_vertices#0_COLOR_0"},{"bufferView":1,"byteOffset":3024,"componentType":5123,"count":6,"type":"SCALAR","name":"part001_indices#0"}],"asset":{"generator":"ModelConverterX","version":"2.0","extensions":{"ASOBO_asset_optimized":{"BoundingBoxMax":[0.5,9.697500228881836,12.362500190734864],"BoundingBoxMin":[-15.605199813842774,-0.20000000298023225,-1.809999942779541],"MajorVersion":4,"MinorVersion":3,"UseCheckerboardMaterialForMissingTextures":true}}},"bufferViews":[{"buffer":0,"byteLength":32256,"byteStride":36,"target":34962,"name":"BufferViewVertexND"},{"buffer":0,"byteLength":3036,"byteOffset":32256,"target":34963,"name":"BufferViewIndex"}],"extensionsRequired":["MSFT_texture_dds"],"materials":[{"name":"material00","pbrMetallicRoughness":{"baseColorFactor":[0.10980399698019028,0.5843139886856079,0.6941180229187012,1.0],"metallicFactor":0.0},"extensions":{"ASOBO_material_day_night_switch":{}}},{"name":"material01","doubleSided":true,"emissiveTexture":{"index":1},"emissiveFactor":[1.0,1.0,1.0],"pbrMetallicRoughness":{"baseColorFactor":[0.5879999995231628,0.5879999995231628,0.5879999995231628,1.0],"metallicFactor":0.0,"baseColorTexture":{"index":0}},"extensions":{"ASOBO_material_day_night_switch":{}}}],"meshes":[{"primitives":[{"attributes":{"COLOR_0":5,"NORMAL":2,"POSITION":0,"TANGENT":1,"TEXCOORD_0":3,"TEXCOORD_1":4},"indices":6,"material":1,"mode":4,"extras":{"ASOBO_primitive":{"PrimitiveCount":504,"VertexType":"VTX","VertexVersion":2}}}],"name":"part000"},{"primitives":[{"attributes":{"COLOR_0":12,"NORMAL":9,"POSITION":7,"TANGENT":8,"TEXCOORD_0":10,"TEXCOORD_1":11},"indices":13,"material":0,"mode":4,"extras":{"ASOBO_primitive":{"PrimitiveCount":2,"VertexType":"VTX","VertexVersion":2}}}],"name":"part001"}],"nodes":[{"name":"node0","children":[1,2,3]},{"mesh":0,"name":"node1"},{"mesh":1,"name":"node2"},{"translation":[0.0,0.0,0.0],"rotation":[0.7071067811865476,0.0,0.0,-0.7071067811865475],"scale":[1.0,1.0,1.0],"name":"node3","children":[4]},{"translation":[0.0,0.0,0.0],"rotation":[1.0,0.0,0.0,0.0],"scale":[1.0,1.0,1.0],"name":"node4","children":[5]},{"translation":[0.0,0.0,0.0],"rotation":[0.7071067811865476,0.0,0.0,0.7071067811865475],"scale":[1.0,1.0,1.0],"name":"node5","children":[6]},{"translation":[-0.03941100090742111,-0.004598999861627818,-6.845797061920166],"rotation":[0.03627086131082328,0.0,0.9993419958251384,0.0],"scale":[1.0,1.0,1.0],"name":"node6","children":[7]},{"translation":[13.513411540364312,0.0,0.0],"rotation":[0.0,0.0,0.7071067811865476,0.7071067811865475],"scale":[1.0,1.0,1.0],"name":"node7","children":[8]},{"translation":[2.2658444295805304,0.0,0.0],"rotation":[0.0,0.0,-0.019987493151611053,0.9998002301047517],"scale":[1.0,1.0,1.0],"name":"node8","children":[9]},{"translation":[0.5107340941938993,9.999999969766017e-7,0.0],"rotation":[0.0,0.0,0.021415905819128029,0.9997706531889933],"scale":[1.0,1.0,1.0],"name":"node9","children":[10,14]},{"translation":[7.144586131944978,-0.00000100000026180376,0.0],"rotation":[0.0,0.0,-0.0014285013828808837,0.9999989796913794],"scale":[1.0,1.0,1.0],"name":"node10","children":[11,12,13]},{"translation":[3.2864965956923988,-0.0000010000003495253429,0.0],"rotation":[0.0,0.0,0.0,1.0],"scale":[1.0,1.0,1.0],"name":"node11"},{"translation":[1.502855686528211,-0.1925040714150435,1.7832712092204004],"rotation":[-0.4834702652711077,0.47959327878224819,0.5157177662481942,0.5198865021536436],"scale":[1.0,1.0,1.0],"name":"node12"},{"translation":[1.9621489215270589,-0.1925040714150435,1.7832712092204004],"rotation":[0.5770002044244486,-0.3616958589348124,-0.388939727470812,-0.6204617297774967],"scale":[0.9999999568556152,1.0000000431443835,1.0],"name":"node13"},{"translation":[5.408137137526313,-1.749066457544392,-1.457134216064334],"rotation":[0.4816176813297532,0.4814535176031378,0.5191970042842998,-0.5164120352589839],"scale":[1.0,1.0,1.0],"name":"node14","children":[15]},{"translation":[4.051999117888616,0.0,0.0],"rotation":[0.0,0.0,0.00288801303249918,0.9999958296816665],"scale":[1.0,1.0,1.0],"name":"node15"}],"scene":0,"scenes":[{"nodes":[0]}],"textures":[{"extensions":{"MSFT_texture_dds":{"source":0}}},{"extensions":{"MSFT_texture_dds":{"source":1}}}],"extensionsUsed":["ASOBO_material_day_night_switch","MSFT_texture_dds","ASOBO_asset_optimized"],"buffers":[{"byteLength":35292,"uri":"jetways_SKCL2.bin"}],"images":[{"uri":"JETWAYS_SKCL2_JETWAYSKCL.PNG.DDS","extras":"ASOBO_image_converted_meta"},{"uri":"JETWAYS_SKCL2_JETWAYSKCL_LM.PNG.DDS","extras":"ASOBO_image_converted_meta"}]}
