{"accessors":[{"bufferView":0,"componentType":5126,"count":903,"min":[-20.22348976135254,-0.0017000000225380064,-6.599999904632568],"max":[-0.03999999910593033,9.697500228881836,5.945069789886475],"type":"VEC3","name":"part000_vertices#0_POSITION"},{"bufferView":0,"byteOffset":12,"componentType":5120,"count":903,"type":"VEC4","name":"part000_vertices#0_TANGENT"},{"bufferView":0,"byteOffset":16,"componentType":5120,"count":903,"type":"VEC4","name":"part000_vertices#0_NORMAL"},{"bufferView":0,"byteOffset":20,"componentType":5122,"count":903,"type":"VEC2","name":"part000_vertices#0_TEXCOORD_0"},{"bufferView":0,"byteOffset":24,"componentType":5122,"count":903,"type":"VEC2","name":"part000_vertices#0_TEXCOORD_1"},{"bufferView":0,"byteOffset":28,"componentType":5123,"count":903,"type":"VEC4","name":"part000_vertices#0_COLOR_0"},{"bufferView":1,"componentType":5123,"count":1548,"type":"SCALAR","name":"part000_indices#0"},{"bufferView":0,"byteOffset":32508,"componentType":5126,"count":4,"min":[-0.5,-0.20000000298023225,-0.5],"max":[0.5,-0.20000000298023225,0.5],"type":"VEC3","name":"part001_vertices#0_POSITION"},{"bufferView":0,"byteOffset":32520,"componentType":5120,"count":4,"type":"VEC4","name":"part001_vertices#0_TANGENT"},{"bufferView":0,"byteOffset":32524,"componentType":5120,"count":4,"type":"VEC4","name":"part001_vertices#0_NORMAL"},{"bufferView":0,"byteOffset":32528,"componentType":5122,"count":4,"type":"VEC2","name":"part001_vertices#0_TEXCOORD_0"},{"bufferView":0,"byteOffset":32532,"componentType":5122,"count":4,"type":"VEC2","name":"part001_vertices#0_TEXCOORD_1"},{"bufferView":0,"byteOffset":32536,"componentType":5123,"count":4,"type":"VEC4","name":"part001_vertices#0_COLOR_0"},{"bufferView":1,"byteOffset":3096,"componentType":5123,"count":6,"type":"SCALAR","name":"part001_indices#0"}],"asset":{"generator":"ModelConverterX","version":"2.0","extensions":{"ASOBO_asset_optimized":{"BoundingBoxMax":[0.5,9.697500228881836,5.945069789886475],"BoundingBoxMin":[-20.22348976135254,-0.20000000298023225,-6.599999904632568],"MajorVersion":4,"MinorVersion":3,"UseCheckerboardMaterialForMissingTextures":true}}},"bufferViews":[{"buffer":0,"byteLength":32652,"byteStride":36,"target":34962,"name":"BufferViewVertexND"},{"buffer":0,"byteLength":3108,"byteOffset":32652,"target":34963,"name":"BufferViewIndex"}],"extensionsRequired":["MSFT_texture_dds"],"materials":[{"name":"material00","pbrMetallicRoughness":{"baseColorFactor":[0.10980399698019028,0.5843139886856079,0.6941180229187012,1.0],"metallicFactor":0.0},"extensions":{"ASOBO_material_day_night_switch":{}}},{"name":"material01","doubleSided":true,"emissiveTexture":{"index":1},"emissiveFactor":[1.0,1.0,1.0],"pbrMetallicRoughness":{"baseColorFactor":[0.5879999995231628,0.5879999995231628,0.5879999995231628,1.0],"metallicFactor":0.0,"baseColorTexture":{"index":0}},"extensions":{"ASOBO_material_day_night_switch":{}}}],"meshes":[{"primitives":[{"attributes":{"COLOR_0":5,"NORMAL":2,"POSITION":0,"TANGENT":1,"TEXCOORD_0":3,"TEXCOORD_1":4},"indices":6,"material":1,"mode":4,"extras":{"ASOBO_primitive":{"PrimitiveCount":516,"VertexType":"VTX","VertexVersion":2}}}],"name":"part000"},{"primitives":[{"attributes":{"COLOR_0":12,"NORMAL":9,"POSITION":7,"TANGENT":8,"TEXCOORD_0":10,"TEXCOORD_1":11},"indices":13,"material":0,"mode":4,"extras":{"ASOBO_primitive":{"PrimitiveCount":2,"VertexType":"VTX","VertexVersion":2}}}],"name":"part001"}],"nodes":[{"name":"node0","children":[1,2,3]},{"mesh":0,"name":"node1"},{"mesh":1,"name":"node2"},{"translation":[0.0,0.0,0.0],"rotation":[0.7071067811865476,0.0,0.0,-0.7071067811865475],"scale":[1.0,1.0,1.0],"name":"node3","children":[4]},{"translation":[0.0,0.0,0.0],"rotation":[1.0,0.0,0.0,0.0],"scale":[1.0,1.0,1.0],"name":"node4","children":[5]},{"translation":[0.0,0.0,0.0],"rotation":[0.7071067811865476,0.0,0.0,0.7071067811865475],"scale":[1.0,1.0,1.0],"name":"node5","children":[6]},{"translation":[-0.03184900060296059,0.000577000027988106,-6.6333909034729],"rotation":[0.0,0.0,-0.9999980624936276,0.001968504252072162],"scale":[1.0,1.0,1.0],"name":"node6","children":[7]},{"translation":[3.6663530720149257,0.0,0.0],"rotation":[-0.00008056757857448128,-0.04091057077428967,-0.001966900642025839,0.9991608729377124],"scale":[1.0,1.0,1.0],"name":"node7","children":[8]},{"translation":[14.766117598708698,0.0,0.0],"rotation":[0.0,0.0,0.7071067811865476,0.7071067811865475],"scale":[1.0,1.0,1.0],"name":"node8","children":[9,14]},{"translation":[1.8764427287678077,-9.99999523462789e-7,0.0],"rotation":[0.0,0.0,0.0,1.0],"scale":[1.0,1.0,1.0],"name":"node9","children":[10]},{"translation":[1.616627792616359,-9.99999523462789e-7,0.0],"rotation":[0.0,0.0,0.0,1.0],"scale":[1.0,1.0,1.0],"name":"node10","children":[11,12,13]},{"translation":[3.4353334185599344,0.0,0.0],"rotation":[0.0,0.0,0.0,1.0],"scale":[1.0,1.0,1.0],"name":"node11"},{"translation":[1.501412747921987,-0.14840093671231054,1.6465195520990026],"rotation":[-0.48143886682434908,0.4768021514344311,0.5175142028374904,0.5225470081819066],"scale":[1.0,1.0,1.0],"name":"node12"},{"translation":[1.9556026911772385,-0.14840093671231054,1.6465195520990026],"rotation":[0.5896010357463534,-0.3339075754990303,-0.3624184065128457,-0.6399447228408688],"scale":[0.9999999829368419,1.0000000170631576,1.0],"name":"node13"},{"translation":[1.836882655511268,3.320091342723252,-2.7872849239431969],"rotation":[-0.029899959333104226,0.7064640278015644,0.030143777421060806,-0.7064742900750591],"scale":[1.0,1.0,1.0],"name":"node14","children":[15]},{"translation":[4.662295207699512,-9.999998162613353e-7,0.0],"rotation":[0.0,0.0,-0.0003459999240335572,0.9999999401420243],"scale":[1.0,1.0,1.0],"name":"node15"}],"scene":0,"scenes":[{"nodes":[0]}],"textures":[{"extensions":{"MSFT_texture_dds":{"source":0}}},{"extensions":{"MSFT_texture_dds":{"source":1}}}],"extensionsUsed":["ASOBO_material_day_night_switch","MSFT_texture_dds","ASOBO_asset_optimized"],"buffers":[{"byteLength":35760,"uri":"jetways_SKCL.bin"}],"images":[{"uri":"JETWAYS_SKCL_JETWAYSKCL.PNG.DDS","extras":"ASOBO_image_converted_meta"},{"uri":"JETWAYS_SKCL_JETWAYSKCL_LM.PNG.DDS","extras":"ASOBO_image_converted_meta"}]}
