{"accessors":[{"bufferView":0,"componentType":5126,"count":2095,"min":[-21.520299911499025,0.0,-2.0373499393463136],"max":[3.5819900035858156,10.42870044708252,4.101630210876465],"type":"VEC3","name":"part000_vertices#0_POSITION"},{"bufferView":0,"byteOffset":12,"componentType":5120,"count":2095,"type":"VEC4","name":"part000_vertices#0_TANGENT"},{"bufferView":0,"byteOffset":16,"componentType":5120,"count":2095,"type":"VEC4","name":"part000_vertices#0_NORMAL"},{"bufferView":0,"byteOffset":20,"componentType":5122,"count":2095,"type":"VEC2","name":"part000_vertices#0_TEXCOORD_0"},{"bufferView":0,"byteOffset":24,"componentType":5122,"count":2095,"type":"VEC2","name":"part000_vertices#0_TEXCOORD_1"},{"bufferView":0,"byteOffset":28,"componentType":5123,"count":2095,"type":"VEC4","name":"part000_vertices#0_COLOR_0"},{"bufferView":1,"componentType":5123,"count":3513,"type":"SCALAR","name":"part000_indices#0"},{"bufferView":0,"byteOffset":75420,"componentType":5126,"count":4,"min":[-0.5,-0.10000000149011612,-0.5],"max":[0.5,-0.10000000149011612,0.5],"type":"VEC3","name":"part001_vertices#0_POSITION"},{"bufferView":0,"byteOffset":75432,"componentType":5120,"count":4,"type":"VEC4","name":"part001_vertices#0_TANGENT"},{"bufferView":0,"byteOffset":75436,"componentType":5120,"count":4,"type":"VEC4","name":"part001_vertices#0_NORMAL"},{"bufferView":0,"byteOffset":75440,"componentType":5122,"count":4,"type":"VEC2","name":"part001_vertices#0_TEXCOORD_0"},{"bufferView":0,"byteOffset":75444,"componentType":5122,"count":4,"type":"VEC2","name":"part001_vertices#0_TEXCOORD_1"},{"bufferView":0,"byteOffset":75448,"componentType":5123,"count":4,"type":"VEC4","name":"part001_vertices#0_COLOR_0"},{"bufferView":1,"byteOffset":7026,"componentType":5123,"count":6,"type":"SCALAR","name":"part001_indices#0"}],"asset":{"generator":"ModelConverterX","version":"2.0","extensions":{"ASOBO_asset_optimized":{"BoundingBoxMax":[3.5819900035858156,10.42870044708252,4.101630210876465],"BoundingBoxMin":[-21.520299911499025,-0.10000000149011612,-2.0373499393463136],"MajorVersion":4,"MinorVersion":3,"UseCheckerboardMaterialForMissingTextures":true}}},"bufferViews":[{"buffer":0,"byteLength":75564,"byteStride":36,"target":34962,"name":"BufferViewVertexND"},{"buffer":0,"byteLength":7038,"byteOffset":75564,"target":34963,"name":"BufferViewIndex"}],"extensionsRequired":["MSFT_texture_dds"],"materials":[{"name":"material00","pbrMetallicRoughness":{"baseColorFactor":[0.10980399698019028,0.5843139886856079,0.6941180229187012,1.0],"metallicFactor":0.0},"extensions":{"ASOBO_material_day_night_switch":{}}},{"name":"material01","doubleSided":true,"emissiveTexture":{"index":1},"emissiveFactor":[1.0,1.0,1.0],"pbrMetallicRoughness":{"baseColorFactor":[0.5879999995231628,0.5879999995231628,0.5879999995231628,1.0],"metallicFactor":0.0,"baseColorTexture":{"index":0}},"extensions":{"ASOBO_material_day_night_switch":{}}}],"meshes":[{"primitives":[{"attributes":{"COLOR_0":5,"NORMAL":2,"POSITION":0,"TANGENT":1,"TEXCOORD_0":3,"TEXCOORD_1":4},"indices":6,"material":1,"mode":4,"extras":{"ASOBO_primitive":{"PrimitiveCount":1171,"VertexType":"VTX","VertexVersion":2}}}],"name":"part000"},{"primitives":[{"attributes":{"COLOR_0":12,"NORMAL":9,"POSITION":7,"TANGENT":8,"TEXCOORD_0":10,"TEXCOORD_1":11},"indices":13,"material":0,"mode":4,"extras":{"ASOBO_primitive":{"PrimitiveCount":2,"VertexType":"VTX","VertexVersion":2}}}],"name":"part001"}],"nodes":[{"name":"node0","children":[1,2,3]},{"mesh":0,"name":"node1"},{"mesh":1,"name":"node2"},{"translation":[0.0,0.0,0.0],"rotation":[0.7071067811865476,0.0,0.0,-0.7071067811865475],"scale":[1.0,1.0,1.0],"name":"node3","children":[4]},{"translation":[0.0,0.0,0.0],"rotation":[1.0,0.0,0.0,0.0],"scale":[1.0,1.0,1.0],"name":"node4","children":[5]},{"translation":[0.0,0.0,0.0],"rotation":[0.7071067811865476,0.0,0.0,0.7071067811865475],"scale":[1.0,1.0,1.0],"name":"node5","children":[6]},{"translation":[2.0757980346679689,0.0,-7.122696876525879],"rotation":[-0.0017677733105823544,-0.7071045714585096,-0.7071045714585096,0.0017677733105823544],"scale":[1.0,1.0,1.0],"name":"node6","children":[7]},{"translation":[4.082651983604663,0.0,0.0],"rotation":[0.0,0.0,-0.002500006457850417,0.9999968749789726],"scale":[1.0,1.0,1.0],"name":"node7","children":[8]},{"translation":[5.8700000370543539,0.0,0.0],"rotation":[0.0,0.0,0.0039370304319916739,0.9999922498656566],"scale":[1.0,1.0,1.0],"name":"node8","children":[9]},{"translation":[2.5925320019492159,0.0,0.0],"rotation":[0.0,0.0,-0.006507639809466456,0.9999788250878668],"scale":[1.0,1.0,1.0],"name":"node9","children":[10,14]},{"translation":[7.940763747943554,0.0,0.0],"rotation":[0.0,0.0,0.005477582400190661,0.9999849979329936],"scale":[1.0,1.0,1.0],"name":"node10","children":[11,12,13]},{"translation":[3.511100025243111,0.0,0.0],"rotation":[0.0,0.0,0.0,1.0],"scale":[1.0,1.0,1.0],"name":"node11"},{"translation":[1.760054453576419,1.672801503474946,0.0],"rotation":[0.0,0.0,0.7090377283064636,-0.7051705466325218],"scale":[1.0,1.0,1.0],"name":"node12"},{"translation":[2.607070193532434,1.6477565924208729,0.0],"rotation":[0.0,0.0,0.5160336819717619,-0.8565682921230896],"scale":[1.0,1.0,1.0],"name":"node13"},{"translation":[3.9844619178383224,-1.7545285331742334,0.0],"rotation":[0.0,0.0,0.7068422738553362,0.7073711896105311],"scale":[1.0,1.0,1.0],"name":"node14","children":[15]},{"translation":[3.305427120925005,0.0,0.0],"rotation":[0.0,0.0,-0.0012985005778397025,0.9999991569477693],"scale":[1.0,1.0,1.0],"name":"node15"}],"scene":0,"scenes":[{"nodes":[0]}],"textures":[{"extensions":{"MSFT_texture_dds":{"source":0}}},{"extensions":{"MSFT_texture_dds":{"source":1}}}],"extensionsUsed":["ASOBO_material_day_night_switch","MSFT_texture_dds","ASOBO_asset_optimized"],"buffers":[{"byteLength":82602,"uri":"jetwaysSKCL_animated.bin"}],"images":[{"uri":"JETWAYSSKCL_ANIMATED_JETWAYS.PNG.DDS","extras":"ASOBO_image_converted_meta"},{"uri":"JETWAYSSKCL_ANIMATED_JETWAYS_LM.PNG.DDS","extras":"ASOBO_image_converted_meta"}]}
