{"accessors":[{"bufferView":0,"componentType":5126,"count":903,"min":[-27.22348976135254,-0.0017600000137463213,-6.599999904632568],"max":[-0.03999999910593033,9.697500228881836,5.945079803466797],"type":"VEC3","name":"part000_vertices#0_POSITION"},{"bufferView":0,"byteOffset":12,"componentType":5120,"count":903,"type":"VEC4","name":"part000_vertices#0_TANGENT"},{"bufferView":0,"byteOffset":16,"componentType":5120,"count":903,"type":"VEC4","name":"part000_vertices#0_NORMAL"},{"bufferView":0,"byteOffset":20,"componentType":5122,"count":903,"type":"VEC2","name":"part000_vertices#0_TEXCOORD_0"},{"bufferView":0,"byteOffset":24,"componentType":5122,"count":903,"type":"VEC2","name":"part000_vertices#0_TEXCOORD_1"},{"bufferView":0,"byteOffset":28,"componentType":5123,"count":903,"type":"VEC4","name":"part000_vertices#0_COLOR_0"},{"bufferView":1,"componentType":5123,"count":1548,"type":"SCALAR","name":"part000_indices#0"},{"bufferView":0,"byteOffset":32508,"componentType":5126,"count":4,"min":[-0.5,-0.20000000298023225,-0.5],"max":[0.5,-0.20000000298023225,0.5],"type":"VEC3","name":"part001_vertices#0_POSITION"},{"bufferView":0,"byteOffset":32520,"componentType":5120,"count":4,"type":"VEC4","name":"part001_vertices#0_TANGENT"},{"bufferView":0,"byteOffset":32524,"componentType":5120,"count":4,"type":"VEC4","name":"part001_vertices#0_NORMAL"},{"bufferView":0,"byteOffset":32528,"componentType":5122,"count":4,"type":"VEC2","name":"part001_vertices#0_TEXCOORD_0"},{"bufferView":0,"byteOffset":32532,"componentType":5122,"count":4,"type":"VEC2","name":"part001_vertices#0_TEXCOORD_1"},{"bufferView":0,"byteOffset":32536,"componentType":5123,"count":4,"type":"VEC4","name":"part001_vertices#0_COLOR_0"},{"bufferView":1,"byteOffset":3096,"componentType":5123,"count":6,"type":"SCALAR","name":"part001_indices#0"}],"asset":{"generator":"ModelConverterX","version":"2.0","extensions":{"ASOBO_asset_optimized":{"BoundingBoxMax":[0.5,9.697500228881836,5.945079803466797],"BoundingBoxMin":[-27.22348976135254,-0.20000000298023225,-6.599999904632568],"MajorVersion":4,"MinorVersion":3,"UseCheckerboardMaterialForMissingTextures":true}}},"bufferViews":[{"buffer":0,"byteLength":32652,"byteStride":36,"target":34962,"name":"BufferViewVertexND"},{"buffer":0,"byteLength":3108,"byteOffset":32652,"target":34963,"name":"BufferViewIndex"}],"extensionsRequired":["MSFT_texture_dds"],"materials":[{"name":"material00","pbrMetallicRoughness":{"baseColorFactor":[0.031373001635074618,0.2392159998416901,0.5411760210990906,1.0],"metallicFactor":0.0},"extensions":{"ASOBO_material_day_night_switch":{}}},{"name":"material01","doubleSided":true,"emissiveTexture":{"index":1},"emissiveFactor":[1.0,1.0,1.0],"pbrMetallicRoughness":{"baseColorFactor":[0.5879999995231628,0.5879999995231628,0.5879999995231628,1.0],"metallicFactor":0.0,"baseColorTexture":{"index":0}},"extensions":{"ASOBO_material_day_night_switch":{}}}],"meshes":[{"primitives":[{"attributes":{"COLOR_0":5,"NORMAL":2,"POSITION":0,"TANGENT":1,"TEXCOORD_0":3,"TEXCOORD_1":4},"indices":6,"material":1,"mode":4,"extras":{"ASOBO_primitive":{"PrimitiveCount":516,"VertexType":"VTX","VertexVersion":2}}}],"name":"part000"},{"primitives":[{"attributes":{"COLOR_0":12,"NORMAL":9,"POSITION":7,"TANGENT":8,"TEXCOORD_0":10,"TEXCOORD_1":11},"indices":13,"material":0,"mode":4,"extras":{"ASOBO_primitive":{"PrimitiveCount":2,"VertexType":"VTX","VertexVersion":2}}}],"name":"part001"}],"nodes":[{"name":"node0","children":[1,2,3]},{"mesh":0,"name":"node1"},{"mesh":1,"name":"node2"},{"translation":[0.0,0.0,0.0],"rotation":[0.7071067811865476,0.0,0.0,-0.7071067811865475],"scale":[1.0,1.0,1.0],"name":"node3","children":[4]},{"translation":[0.0,0.0,0.0],"rotation":[1.0,0.0,0.0,0.0],"scale":[1.0,1.0,1.0],"name":"node4","children":[5]},{"translation":[0.0,0.0,0.0],"rotation":[0.7071067811865476,0.0,0.0,0.7071067811865475],"scale":[1.0,1.0,1.0],"name":"node5","children":[6]},{"translation":[-0.03243299946188927,-0.003544999985024333,-6.645547866821289],"rotation":[0.0,0.0,1.0,0.0],"scale":[1.0,1.0,1.0],"name":"node6","children":[7]},{"translation":[3.666282892227173,0.0,0.0],"rotation":[-0.000016254925001461425,-0.02459345259317943,-0.0006637010676093024,0.99969731485396],"scale":[1.0,1.0,1.0],"name":"node7","children":[8]},{"translation":[21.737880843262216,0.0,0.0],"rotation":[0.0,0.0,0.7075761443684094,0.706637106243888],"scale":[1.0,1.0,1.0],"name":"node8","children":[9]},{"translation":[1.8764419702798392,0.0,0.0],"rotation":[0.0,0.0,0.0,1.0],"scale":[1.0,1.0,1.0],"name":"node9","children":[10,14]},{"translation":[1.645495082846594,9.99999734502305e-7,0.0],"rotation":[0.0,0.0,0.0,1.0],"scale":[1.0,1.0,1.0],"name":"node10","children":[11,12,13]},{"translation":[3.1755171988134549,9.99999734502305e-7,0.0],"rotation":[0.0,0.0,0.0,1.0],"scale":[1.0,1.0,1.0],"name":"node11"},{"translation":[1.50864420691794,-0.08689897457394833,1.7960744522871568],"rotation":[-0.48978466308855059,0.4853093258154576,0.5097903069628885,0.5144897326540779],"scale":[1.0,1.0,1.0],"name":"node12"},{"translation":[1.970537862575208,-0.0868999804020644,1.7961044930191892],"rotation":[0.5825880600503641,-0.36878854727844737,-0.38739256950761616,-0.6119748007665777],"scale":[1.0000000298514825,0.9999999701485172,1.0],"name":"node13"},{"translation":[0.003913997793608391,3.177307247034524,-2.733912131700643],"rotation":[-0.017199669203347615,0.7067579653339934,0.01743631339339565,-0.7070313463995048],"scale":[1.0,1.0,1.0],"name":"node14","children":[15]},{"translation":[4.6622369709764979,9.999994258187682e-7,0.0],"rotation":[-0.0000010000067663093159,-0.0002742518113871589,0.0036760246574684028,0.9999932057907502],"scale":[1.0,1.0,1.0],"name":"node15"}],"scene":0,"scenes":[{"nodes":[0]}],"textures":[{"extensions":{"MSFT_texture_dds":{"source":0}}},{"extensions":{"MSFT_texture_dds":{"source":1}}}],"extensionsUsed":["ASOBO_material_day_night_switch","MSFT_texture_dds","ASOBO_asset_optimized"],"buffers":[{"byteLength":35760,"uri":"jetways_SKCL_3.bin"}],"images":[{"uri":"JETWAYS_SKCL_3_JETWAYSKCL.PNG.DDS","extras":"ASOBO_image_converted_meta"},{"uri":"JETWAYS_SKCL_3_JETWAYSKCL_LM.PNG.DDS","extras":"ASOBO_image_converted_meta"}]}
