{"accessors":[{"bufferView":0,"componentType":5126,"count":2007,"min":[-18.249570846557618,-0.014999999664723874,-1.8966599702835084],"max":[0.0695900022983551,9.335419654846192,2.0993399620056154],"type":"VEC3","name":"part000_vertices#0_POSITION"},{"bufferView":0,"byteOffset":12,"componentType":5120,"count":2007,"type":"VEC4","name":"part000_vertices#0_TANGENT"},{"bufferView":0,"byteOffset":16,"componentType":5120,"count":2007,"type":"VEC4","name":"part000_vertices#0_NORMAL"},{"bufferView":0,"byteOffset":20,"componentType":5122,"count":2007,"type":"VEC2","name":"part000_vertices#0_TEXCOORD_0"},{"bufferView":0,"byteOffset":24,"componentType":5122,"count":2007,"type":"VEC2","name":"part000_vertices#0_TEXCOORD_1"},{"bufferView":0,"byteOffset":28,"componentType":5123,"count":2007,"type":"VEC4","name":"part000_vertices#0_COLOR_0"},{"bufferView":1,"componentType":5123,"count":3411,"type":"SCALAR","name":"part000_indices#0"},{"bufferView":0,"byteOffset":72252,"componentType":5126,"count":4,"min":[-2.5258500576019289,0.0,-1.4468300342559815],"max":[0.47415000200271609,0.0,1.5531699657440186],"type":"VEC3","name":"part001_vertices#0_POSITION"},{"bufferView":0,"byteOffset":72264,"componentType":5120,"count":4,"type":"VEC4","name":"part001_vertices#0_TANGENT"},{"bufferView":0,"byteOffset":72268,"componentType":5120,"count":4,"type":"VEC4","name":"part001_vertices#0_NORMAL"},{"bufferView":0,"byteOffset":72272,"componentType":5122,"count":4,"type":"VEC2","name":"part001_vertices#0_TEXCOORD_0"},{"bufferView":0,"byteOffset":72276,"componentType":5122,"count":4,"type":"VEC2","name":"part001_vertices#0_TEXCOORD_1"},{"bufferView":0,"byteOffset":72280,"componentType":5123,"count":4,"type":"VEC4","name":"part001_vertices#0_COLOR_0"},{"bufferView":1,"byteOffset":6822,"componentType":5123,"count":6,"type":"SCALAR","name":"part001_indices#0"}],"asset":{"generator":"ModelConverterX","version":"2.0","extensions":{"ASOBO_asset_optimized":{"BoundingBoxMax":[0.47415000200271609,9.335419654846192,2.0993399620056154],"BoundingBoxMin":[-18.249570846557618,-0.014999999664723874,-1.8966599702835084],"MajorVersion":4,"MinorVersion":3,"UseCheckerboardMaterialForMissingTextures":true}}},"bufferViews":[{"buffer":0,"byteLength":72396,"byteStride":36,"target":34962,"name":"BufferViewVertexND"},{"buffer":0,"byteLength":6834,"byteOffset":72396,"target":34963,"name":"BufferViewIndex"}],"extensionsRequired":["MSFT_texture_dds"],"materials":[{"name":"material00","pbrMetallicRoughness":{"baseColorFactor":[0.5254899859428406,0.023529000580310826,0.023529000580310826,1.0],"metallicFactor":0.0},"extensions":{"ASOBO_material_day_night_switch":{}}},{"name":"material01","doubleSided":true,"emissiveTexture":{"index":1},"emissiveFactor":[1.0,1.0,1.0],"pbrMetallicRoughness":{"baseColorFactor":[0.5879999995231628,0.5879999995231628,0.5879999995231628,1.0],"metallicFactor":0.0,"baseColorTexture":{"index":0}},"extensions":{"ASOBO_material_day_night_switch":{}}}],"meshes":[{"primitives":[{"attributes":{"COLOR_0":5,"NORMAL":2,"POSITION":0,"TANGENT":1,"TEXCOORD_0":3,"TEXCOORD_1":4},"indices":6,"material":1,"mode":4,"extras":{"ASOBO_primitive":{"PrimitiveCount":1137,"VertexType":"VTX","VertexVersion":2}}}],"name":"part000"},{"primitives":[{"attributes":{"COLOR_0":12,"NORMAL":9,"POSITION":7,"TANGENT":8,"TEXCOORD_0":10,"TEXCOORD_1":11},"indices":13,"material":0,"mode":4,"extras":{"ASOBO_primitive":{"PrimitiveCount":2,"VertexType":"VTX","VertexVersion":2}}}],"name":"part001"}],"nodes":[{"name":"node0","children":[1,2,3]},{"mesh":0,"name":"node1"},{"mesh":1,"name":"node2"},{"translation":[0.0,0.0,0.0],"rotation":[0.7071067811865476,0.0,0.0,-0.7071067811865475],"scale":[1.0,1.0,1.0],"name":"node3","children":[4]},{"translation":[0.0,0.0,0.0],"rotation":[1.0,0.0,0.0,0.0],"scale":[1.0,1.0,1.0],"name":"node4","children":[5]},{"translation":[0.0,0.0,0.0],"rotation":[0.7071067811865476,0.0,0.0,0.7071067811865475],"scale":[1.0,1.0,1.0],"name":"node5","children":[6]},{"translation":[0.06667699664831162,-0.1108819991350174,-6.560320854187012],"rotation":[0.0012484003041889612,0.7071063546783167,0.7071060583552586,0.00025866486545739767],"scale":[1.0,1.0,1.0],"name":"node6","children":[7]},{"translation":[2.0075548217132566,0.0,0.0],"rotation":[-2.50000129932585e-7,0.0011305011513818588,-0.0002790002047446614,0.9999993220627552],"scale":[1.0,1.0,1.0],"name":"node7","children":[8]},{"translation":[3.804969505336529,0.0,0.0],"rotation":[0.0,0.0,-0.0006890002152213098,0.9999997626393236],"scale":[1.0,1.0,1.0],"name":"node8","children":[9]},{"translation":[1.4929431230656632,0.0,0.0],"rotation":[0.0,-0.000011500128318730696,-0.004767551864569,0.9999886350939024],"scale":[1.0,1.0,1.0],"name":"node9","children":[10,14]},{"translation":[7.959647883021658,0.0,0.0],"rotation":[2.500740694339735e-7,0.000012003556596157238,0.02434270997765417,0.999703672258333],"scale":[1.0,1.0,1.0],"name":"node10","children":[11,12,13]},{"translation":[3.5493852087231856,0.0000010000004753846956,0.0],"rotation":[0.0,0.0,0.0,1.0],"scale":[1.0,1.0,1.0],"name":"node11"},{"translation":[1.8509001719714434,1.7635988080806205,0.1061550118681993],"rotation":[0.0,0.0,0.7237033241230675,-0.6901112219441316],"scale":[1.0,1.0,1.0],"name":"node12"},{"translation":[2.656421701599977,1.7274727732451596,0.1061550118681993],"rotation":[-2.494340146999717e-7,-4.6911707404336925e-7,0.4705370616789156,-0.8823802318650901],"scale":[1.0,1.0,1.0],"name":"node13"},{"translation":[4.022226945756585,-1.0883814249325688,-0.00009700000670194432],"rotation":[0.000008438885628821902,0.00000879050743113041,0.7109943746571245,0.7031976955717624],"scale":[1.0,1.0,1.0],"name":"node14","children":[15]},{"translation":[3.0659849932905645,-0.0000010000001530380397,0.0],"rotation":[0.000023001572702136525,-0.011508286278447296,0.0020053868051081696,0.999931766292892],"scale":[1.0,1.0,1.0],"name":"node15"}],"scene":0,"scenes":[{"nodes":[0]}],"textures":[{"extensions":{"MSFT_texture_dds":{"source":0}}},{"extensions":{"MSFT_texture_dds":{"source":1}}}],"extensionsUsed":["ASOBO_material_day_night_switch","MSFT_texture_dds","ASOBO_asset_optimized"],"buffers":[{"byteLength":79230,"uri":"jetways_static.bin"}],"images":[{"uri":"JETWAYS_STATIC_JETWAYS.PNG.DDS","extras":"ASOBO_image_converted_meta"},{"uri":"JETWAYS_STATIC_JETWAYS_LM.PNG.DDS","extras":"ASOBO_image_converted_meta"}]}
