{"accessors":[{"bufferView":0,"componentType":5126,"count":4,"min":[-0.2563900053501129,0.019999999552965165,-0.25],"max":[0.24360999464988709,0.019999999552965165,0.25],"type":"VEC3","name":"part000_vertices#0_POSITION"},{"bufferView":0,"byteOffset":12,"componentType":5120,"count":4,"type":"VEC4","name":"part000_vertices#0_TANGENT"},{"bufferView":0,"byteOffset":16,"componentType":5120,"count":4,"type":"VEC4","name":"part000_vertices#0_NORMAL"},{"bufferView":0,"byteOffset":20,"componentType":5122,"count":4,"type":"VEC2","name":"part000_vertices#0_TEXCOORD_0"},{"bufferView":0,"byteOffset":24,"componentType":5122,"count":4,"type":"VEC2","name":"part000_vertices#0_TEXCOORD_1"},{"bufferView":0,"byteOffset":28,"componentType":5123,"count":4,"type":"VEC4","name":"part000_vertices#0_COLOR_0"},{"bufferView":1,"componentType":5123,"count":6,"type":"SCALAR","name":"part000_indices#0"},{"bufferView":0,"byteOffset":144,"componentType":5126,"count":4,"min":[-0.04978000000119209,-2.3701701164245607,-2.4672698974609377],"max":[-0.04978000000119209,2.4054598808288576,2.3083701133728029],"type":"VEC3","name":"part001_vertices#0_POSITION"},{"bufferView":0,"byteOffset":156,"componentType":5120,"count":4,"type":"VEC4","name":"part001_vertices#0_TANGENT"},{"bufferView":0,"byteOffset":160,"componentType":5120,"count":4,"type":"VEC4","name":"part001_vertices#0_NORMAL"},{"bufferView":0,"byteOffset":164,"componentType":5122,"count":4,"type":"VEC2","name":"part001_vertices#0_TEXCOORD_0"},{"bufferView":0,"byteOffset":168,"componentType":5122,"count":4,"type":"VEC2","name":"part001_vertices#0_TEXCOORD_1"},{"bufferView":0,"byteOffset":172,"componentType":5123,"count":4,"type":"VEC4","name":"part001_vertices#0_COLOR_0"},{"bufferView":1,"byteOffset":12,"componentType":5123,"count":6,"type":"SCALAR","name":"part001_indices#0"}],"asset":{"generator":"ModelConverterX","version":"2.0","extensions":{"ASOBO_asset_optimized":{"BoundingBoxMax":[0.24360999464988709,2.4054598808288576,2.3083701133728029],"BoundingBoxMin":[-0.2563900053501129,-2.3701701164245607,-2.4672698974609377],"MajorVersion":4,"MinorVersion":3,"UseCheckerboardMaterialForMissingTextures":true}}},"bufferViews":[{"buffer":0,"byteLength":288,"byteStride":36,"target":34962,"name":"BufferViewVertexND"},{"buffer":0,"byteLength":24,"byteOffset":288,"target":34963,"name":"BufferViewIndex"}],"extensionsRequired":["MSFT_texture_dds"],"materials":[{"name":"material00","emissiveTexture":{"index":1},"emissiveFactor":[1.0,1.0,1.0],"pbrMetallicRoughness":{"baseColorFactor":[0.5879999995231628,0.5879999995231628,0.5879999995231628,1.0],"metallicFactor":0.0,"baseColorTexture":{"index":0}},"extensions":{"ASOBO_material_day_night_switch":{},"ASOBO_material_shadow_options":{"noCastShadow":true}}},{"name":"material01","doubleSided":true,"emissiveTexture":{"index":1},"emissiveFactor":[1.0,1.0,1.0],"pbrMetallicRoughness":{"baseColorFactor":[0.5879999995231628,0.5879999995231628,0.5879999995231628,1.0],"metallicFactor":0.0,"baseColorTexture":{"index":0}},"extensions":{"ASOBO_material_day_night_switch":{},"ASOBO_material_shadow_options":{"noCastShadow":true}}}],"meshes":[{"primitives":[{"attributes":{"COLOR_0":5,"NORMAL":2,"POSITION":0,"TANGENT":1,"TEXCOORD_0":3,"TEXCOORD_1":4},"indices":6,"material":0,"mode":4,"extras":{"ASOBO_primitive":{"PrimitiveCount":2,"VertexType":"VTX","VertexVersion":2}}}],"name":"part000"},{"primitives":[{"attributes":{"COLOR_0":12,"NORMAL":9,"POSITION":7,"TANGENT":8,"TEXCOORD_0":10,"TEXCOORD_1":11},"indices":13,"material":1,"mode":4,"extras":{"ASOBO_primitive":{"PrimitiveCount":2,"VertexType":"VTX","VertexVersion":2}}}],"name":"part001"}],"nodes":[{"name":"node0","children":[1,2]},{"mesh":0,"name":"node1"},{"mesh":1,"name":"node2"}],"scene":0,"scenes":[{"nodes":[0]}],"textures":[{"extensions":{"MSFT_texture_dds":{"source":0}}},{"extensions":{"MSFT_texture_dds":{"source":1}}}],"extensionsUsed":["ASOBO_material_shadow_options","ASOBO_material_day_night_switch","MSFT_texture_dds","ASOBO_asset_optimized"],"buffers":[{"byteLength":312,"uri":"whiteCenter_LOD1.bin"}],"images":[{"uri":"WHITECENTER_SKBQ_LUCES.PNG.DDS","extras":"ASOBO_image_converted_meta"},{"uri":"WHITECENTER_SKBQ_LUCES_LM.PNG.DDS","extras":"ASOBO_image_converted_meta"}]}
